<svg id="lay" xmlns="http://www.w3.org/2000/svg" viewBox="0 0 221.1 221.1"><defs><style>.cls-1,.cls-2{fill:none;}.cls-1,.cls-2,.cls-3,.cls-4,.cls-5{stroke:#000;stroke-miterlimit:10;}.cls-1{stroke-linecap:round;}.cls-1,.cls-2,.cls-3,.cls-4{stroke-width:0.5px;}.cls-3{fill:#fff;}</style></defs><title>art1</title><path d="M139.8,182.55a11.59,11.59,0,0,1-2.05-3.36,23.23,23.23,0,0,1-1.22-3.7,18.33,18.33,0,0,1-.57-7.77A13.36,13.36,0,0,1,137.2,164a10,10,0,0,1,2.34-3.14,2.43,2.43,0,0,1,2-.5,1.77,1.77,0,0,1,1.27,1.55,1.59,1.59,0,0,1-.21,1,1.34,1.34,0,0,1-.87.57,1.36,1.36,0,0,1-1-.13,1.27,1.27,0,0,1-.37-.36,1,1,0,0,1-.12-.23c0-.08-.1-.15,0-.26h.06c.11,0,.1.12.15.18a.59.59,0,0,0,.11.19,1,1,0,0,0,1.15.37,1.09,1.09,0,0,0,.83-1.3,1.46,1.46,0,0,0-1-1.22,2,2,0,0,0-1.62.47,10.77,10.77,0,0,0-3.07,6.64,22.93,22.93,0,0,0,.71,7.43,20.42,20.42,0,0,0,2.67,6.95Z"/><path d="M137.59,183.39a11.85,11.85,0,0,1-.59-3.79,24,24,0,0,1,.26-3.79,21.16,21.16,0,0,1,2.13-7.29,14.52,14.52,0,0,1,5.1-5.62,4.56,4.56,0,0,1,.9-.4,2.58,2.58,0,0,1,1-.07,2.05,2.05,0,0,1,1,.36,1.61,1.61,0,0,1,.61.85,1.64,1.64,0,0,1,.05,1,1,1,0,0,1-.82.65,1.31,1.31,0,0,1-1-.23.85.85,0,0,1-.26-.46,1.14,1.14,0,0,1,0-.26c0-.08,0-.18.1-.24h0c.12.1,0,.15.07.23a.76.76,0,0,0,0,.21.59.59,0,0,0,.2.33,1.11,1.11,0,0,0,.79.12.66.66,0,0,0,.55-.46,1.32,1.32,0,0,0-.09-.8,1.35,1.35,0,0,0-1.27-.87,2.21,2.21,0,0,0-.82.08,4.14,4.14,0,0,0-.79.39,13.1,13.1,0,0,0-4.57,5.55,27.57,27.57,0,0,0-2,7,28.09,28.09,0,0,0-.4,3.65,12.72,12.72,0,0,0,.28,3.61Z"/><path class="cls-1" d="M127.15,205.06c0-2.93-.05-5.87-.07-8.8"/><line class="cls-1" x1="113.48" y1="196.19" x2="113.46" y2="205.11"/><line class="cls-1" x1="99.83" y1="196.13" x2="99.8" y2="204.82"/><path class="cls-2" d="M83.38,195.88c-.23-19.57,11.76-32.79,29.9-32.77s29.87,14.63,29.35,33.37c0,0-12.95-.28-31.1-.3S83.38,195.88,83.38,195.88Z"/><circle class="cls-3" cx="146.55" cy="181.33" r="10.75"/><circle class="cls-3" cx="142.41" cy="185.73" r="10.75"/><ellipse class="cls-4" cx="119.7" cy="177.38" rx="6.12" ry="6.02"/><ellipse class="cls-4" cx="99.81" cy="181.85" rx="5.15" ry="5.04"/><ellipse class="cls-5" cx="145.63" cy="178.2" rx="1.47" ry="1.56"/><ellipse class="cls-5" cx="150.39" cy="173.45" rx="1.47" ry="1.56"/><path class="cls-4" d="M93.92,77.69a3.8,3.8,0,0,1-2,4.08c-1.12.67-3,1.58-4.41,1.23a8.9,8.9,0,0,1-2.74-1.81A27.66,27.66,0,0,1,82,77c-.54-.84-1-1.5-1.51-2.38A43.18,43.18,0,0,0,76.8,69c-1.49-1.34-3.7-1.13-5.4-.6-.85.26-1.8.34-1.93,1.33-.06.52.17,1.39.17,2,0,1.29,0,8.32,0,9a7.29,7.29,0,0,0,0,2.29c.45.57,1.29-.33,1.44.81.18,1.33-1.81,1.22-2.63,1.43s-2.11,1-3.07.82c-.54-.08-1-.31-.9-.94s.93-.64,1.39-1c.89-.64.76-1.54.71-2.58-.07-1.21.15-2.43,0-3.62s-.22-2.71-.25-4.07c-.06-3.31-.76-12.72-.88-14.14s.19-9.57-1-10.46c-.74-.54-1.77.25-2.51-.07a1,1,0,0,1-.36-1.62c.69-.57,3.15-.71,4.06-.83a13.68,13.68,0,0,1,3.5-.2c.48.07.85,0,1,.8s-.53.73-1,1c-1,.66-1.18,1.12-1.26,2.47s.2,2.56.22,3.75c0,2.57.33,5.33.39,8,0,.81.06,3.82.68,4.08s1-.37,1.27-.65c.62-.58,1.28-1.22,1.9-1.84,1.88-1.87,3.46-3.87,5.28-5.75,1.53-1.58,5-5.83,5.33-6.25a7.23,7.23,0,0,0,1.23-1.54c.27-.94-1.56-2,0-2.66a6,6,0,0,1,2.46,0c.87.12,1.68.19,2.52.27,1,.11,1.82,1.09.65,1.73-.8.43-1.81-.27-2.57.18s-1.32,1.71-1.77,2.29c-.62.81-1.26,1.42-1.85,2.21-.45.59-2.63,3.09-3.36,3.91s-3.53,3.82-4.4,4.82c-.33.38-.64.76-1,1.18-.62.79-.8.6.07,1,.7.36,1.73.53,2.38.87a8.49,8.49,0,0,1,3.33,3.34c1.24,2.12,2.27,4.14,3.63,6.24.48.74,1,1.74,1.51,2.45a7.42,7.42,0,0,0,2.35,2.35A3.7,3.7,0,0,0,90,81a4.56,4.56,0,0,0,1.07-.51c.54-.33,1.4-1.14,1.42-1.73a3.7,3.7,0,0,0-.75-1.92c-.54-.63-.85-.43-1.6-.26-.25,0-.77.52-1.12.24s-.19-1.3,0-1.65a2.27,2.27,0,0,1,2.69-.79C92.86,74.87,93.64,76.46,93.92,77.69Z"/><path class="cls-4" d="M98.44,63.21c0-.86.4-1.74-.46-2.08-.5-.2-3.08.41-2.36-1.14.35-.76,2.94-.68,3.53-.69,1.83,0,1.85.46,2,2.05a37.41,37.41,0,0,1,.14,4.25c0,1.33-.21,2.64-.23,4,0,.94-.89,6-.14,7s1.39-.12,2.18.13a1.18,1.18,0,0,1,.91,1.49c-.11.84-1,.63-1.47.71-.07-.07-2.87.35-3.59.42-.25,0-2.49.4-3.38.46-.59,0-1.5-.36-1.4-1.09s1-.88,1.64-1.07,1.57-.34,1.8-.77a3.48,3.48,0,0,0,.13-1.16C97.68,74.07,98.45,64.18,98.44,63.21Zm-.59-12.86c-2.47.2-1-4.75,1.46-3.81.82.31,1.31,2,1,2.8A1.63,1.63,0,0,1,97.85,50.35Z"/><path class="cls-4" d="M123.64,80.74c1,.11,2.76-.64,2.38.89-.28,1.12-3.2,1.14-4,1.24s-3.2,1-3.35-.5c-.1-.93.79-.75,1.26-1.24s.43-.75.35-1.66c-.06-.67-.14-1.33-.21-2s.11-2.49-.9-2.27c-.39.08-.63,1-.92,1.5A11,11,0,0,1,115,80.08a5.69,5.69,0,0,1-2.15.8,6.81,6.81,0,0,1-4-1.46,7.1,7.1,0,0,1-2.18-4.69,17,17,0,0,1,1.58-6.9c1-2.48,3.7-5.23,6.31-5.69a12.75,12.75,0,0,1,2.46-.32c.48,0,2.24.27,2.56-.21A6.68,6.68,0,0,0,120,59.1c.27-3.53.92-14.94,1-15.59.12-.88,0-1.13-.74-1.32-1.15-.27-4.31,1.32-4.38-.43,0-1.22,1.53-.79,2.45-.88.56-.06,1.12-.08,1.68-.13s2.06-.68,2.77-.39c1.18.48.53,3.28.57,4.43.07,2.07-.27,13.87-.4,15.54-.15,2.14,0,8.76,0,10s.17,5.8.14,7.16C123,78.33,122.85,80.45,123.64,80.74Zm-4.15-12.89c-.07-.4.1-.75.05-1.13a5.66,5.66,0,0,0-.57-2.18,5.24,5.24,0,0,0-3-1.18,3.39,3.39,0,0,0-2,.54,5.9,5.9,0,0,0-2.73,4,32.76,32.76,0,0,0-.55,5.8c.06,1.43,0,3.53,1,4.68,1.3,1.49,4.34-1,5.4-2.65a30.54,30.54,0,0,0,1.55-3.51A23.68,23.68,0,0,0,119.49,67.85Z"/><path class="cls-4" d="M155,62.74c-.14.44-1.05.86-1.1,1.16-.09.61.73,1.31,1,1.78.58,1,1.14,2,1.78,3,1.25,1.92,2.27,3.93,3.44,5.82,1.37,2.2,1.92-1.28,2.34-2.7.61-2.06,2.66-8,3.09-8.77.54-1,1.05-2.79,2.71-2.49,1.37.24.66,1.1.37,1.79-.57,1.38-4.49,12.82-4.86,13.83s-1.37,3.89-1.56,4.37-1.58,4-2,5.17c-.23.65-4.11,7.91-4.79,8.8a11.56,11.56,0,0,1-4.88,3.89,7.84,7.84,0,0,1-3.13.62,6.47,6.47,0,0,1-3.11-.89,7.23,7.23,0,0,1-1.85-2.41c-1.36-3.08.66-7.76,4.34-7.51a3.48,3.48,0,0,1,2.46,1.58c.49.76.43,2.4-1,1.95-.58-.18-.61-1-1-1.37a1.61,1.61,0,0,0-2.33.27c-.22.24-.4.53-.59.78a5.41,5.41,0,0,0-.27,3.15c.8,1.74,1.59,2.29,3.25,2.3,3.55,0,5.95-2.59,7.61-5.56.56-1,2.35-4.89,2.79-5.82.78-1.66,2.19-4.45,1.86-6.29-.24-1.4-6.83-11.34-7.95-13.32-.34-.61-.82-1.47-1.38-1.64s-1.63.44-2.25-.17a1.21,1.21,0,0,1-.07-1.18c.26-.41,1.43-.52,1.91-.64s4-1,4.81-.42C155.21,62.18,155.12,62.31,155,62.74Z"/><path class="cls-4" d="M48.28,104c2.56,0,5,.1,7.56-.13,1.33-.13,2.7-.13,4-.22,3.35-.24,6.67-.36,10.07-.5,1.33,0,4.88.1,5.51-.89.4-.62,1.45-5.71,3.2-3.79.63.69.11,2.25-.07,3a8,8,0,0,0-.21,3.38c.21,1.15.58,1.91-.41,2.85a1.51,1.51,0,0,1-2.24-.18c-.46-.46-.36-1.53-.75-1.88s-6.54-.49-7.56-.36A3,3,0,0,0,65,106.37c-.62.83.06,5.78.13,6.83.2,2.84.37,5.62.54,8.44.15,2.6.67,21.93.79,23.49.06.64,0,1.28.06,1.91.07,1.21,0,1.63,1.08,1.37.63-.15,1.33-.76,1.86-.07a1.9,1.9,0,0,1,0,1.48,1.35,1.35,0,0,1-.84.47c-1.22.22-6.67,1.17-7.34,1.27-1,.16-2.81.38-3.34-.05s0-1.63.3-1.86a6.85,6.85,0,0,1,1.59-.42c1.32-.4,2.53-.52,2.59-2.11,0-1.08-.16-2.22-.17-3.31,0-1.78-1-28.28-1.1-30.15-.11-2-.18-6.85-.63-7.36s-1-.3-1.62-.21c-1.33.2-9.4.6-9.71.64-1.36.17-1.47,1.55-1.69,2.63-.12.55-.49,2.17-.93,2.44-1,.59-1.71-.89-1.74-1.62a18.73,18.73,0,0,1,.11-2.25c.12-1.29,0-2.33.2-3.65.1-.82.5-6.79,2.47-4.53a2.24,2.24,0,0,1,.32,1.49c-.06.18-.14.65-.16.76a4.73,4.73,0,0,0,.49,2C49.34,104,48.06,103.69,48.28,104Z"/><path class="cls-4" d="M83.76,119.73c.83-.26,2.45-2.37,3.11-3a13.47,13.47,0,0,1,7.22-4,4.9,4.9,0,0,1,3.91,1.2,5.77,5.77,0,0,1,2.17,4.32,6.14,6.14,0,0,1-1.48,3.43c-.56.67-2.12,2-3.07,2a1.68,1.68,0,0,1-1.9-1.79c.12-1.3.94-1,1.84-1.11a1.47,1.47,0,0,0,1.21-.84,3.89,3.89,0,0,0,.36-2,2.62,2.62,0,0,0-3.35-2.48c-1.62.25-5.22,4.1-5.91,4.85a17.58,17.58,0,0,0-2,3.08,34,34,0,0,0-1.6,5.2A73.75,73.75,0,0,0,84,137.1a75.18,75.18,0,0,0,.89,8.13c.36,1.21,1.61.83,2.51.34.36-.21.39-.89,1.18-.41a2,2,0,0,1,.51,2c-.28.41-1.37.58-1.76.78-.6.31-3.89.86-5.19,1.18a18.5,18.5,0,0,1-2.9.53c-.52,0-1,0-1.1-.72s.81-1.24,1.24-1.5c1.15-.69,1.81-.33,1.68-1.82-.08-.79-.32-2.9-.34-3.2,0-.71-.28-3.32-.32-4-.11-1.91-.51-8.48-.47-10a85,85,0,0,0-.5-12.25.2.2,0,0,0-.23-.17c-.58.12-1.42.31-1.85.34a3.35,3.35,0,0,1-1.17,0c-.62-.1-1.2-.25-.75-1.23.3-.65,1.36-.87,2-1.1,1.19-.46,3.4-1.33,4.41-.77S82.65,120.06,83.76,119.73Z"/><path class="cls-4" d="M128.33,118.2a5.09,5.09,0,0,1,2,.41,9.27,9.27,0,0,1,1.25.67c.41.26.86.89,1.28,1.08,1.61.74,1-2,2.45-2.19,1.8-.19,1.48,2.16,1.36,3.23-.08.72-.41,3.71-.5,4.41-.15,1.1-.18,3.12-1.1,4a1.57,1.57,0,0,1-1.38.38,1.48,1.48,0,0,1-.89-1.41,12.3,12.3,0,0,0,.44-4.17c-.32-2-3.11-3.85-5-3.76a4.44,4.44,0,0,0-2.24.82,14,14,0,0,0-3,4c-1.38,3.45-1,7.87-.38,11.55.5,2.81,2.3,5.59,4.89,6.44a6.23,6.23,0,0,0,3.78-.32,6.7,6.7,0,0,0,2.12-1.3,6.4,6.4,0,0,1,.5-.41c.11-.09,2.5-1.57,2.39.27-.07,1.16-2.21,2.58-3.22,3.08a14.83,14.83,0,0,1-2.95,1.1,13.76,13.76,0,0,1-4.87-.3,15.55,15.55,0,0,1-4-2.22,7.83,7.83,0,0,1-1.9-2.13,18.3,18.3,0,0,1-1.62-7.32,28.25,28.25,0,0,1,1.41-7.31,15.24,15.24,0,0,1,2.59-5,11.85,11.85,0,0,1,3.28-2.62A7.53,7.53,0,0,1,128.33,118.2Z"/><path class="cls-4" d="M145.57,127.5c0-1.08-.08-2.15-.11-3.23,0-.84-.13-15.22-.75-15.23a9.93,9.93,0,0,1-2.86-.38c-1.48-.72,0-1.58.89-1.8,1.53-.37,3.08-.7,4.64-1,.66-.11,2.32-.51,2.64.32s-.89,1.51-1.34,1.88a1.5,1.5,0,0,0-.45.49,1.29,1.29,0,0,0-.1.59c.13,1.76,0,7.71.1,9.47s.1,3.86.11,5.82c0,.78.15,1.72.22,2.49.27,2.77,2.65.13,3.38-.46s2-1.71,2.7-2.14a40.58,40.58,0,0,0,5.31-4.4c.36-.44,1-1,.86-1.55s-1.22-.72-.85-1.49,2.06-.44,2.64-.44c.81,0,5.79-.35,4.86,1.53-.34.7-1.28.69-1.9.75a2.8,2.8,0,0,0-2.31,1c-.91.89-5.64,4.69-6.82,5.78-.66.61-1,.89-.86,1.45a3.35,3.35,0,0,0,.66,1.18c.36.49,3.32,5.42,4.42,7.56,1.53,3,5,11.05,5.61,12.18.83,1.55,2.1,4.09,3.88,4.66a3.39,3.39,0,0,0,3.41-1.53,4.11,4.11,0,0,0,.67-2.22c-.06-1.18-.57-1.66-1.56-1.65-.75,0-3.78.63-3-1.35a.38.38,0,0,1,.09-.13,3.88,3.88,0,0,1,2-1.12,3.54,3.54,0,0,1,4.25,2.92,8.41,8.41,0,0,1,.23,2.91,5,5,0,0,1-2.74,3.87c-.81.53-2.31,1.09-5.37.3a7.26,7.26,0,0,1-3.63-2.87c-.28-.34-1.19-1.75-1.44-2.08s-2.78-5.49-3.24-6.52c-.67-1.51-3.49-7.12-3.69-7.52-.39-.76-1.74-4.06-2.29-5.07-.28-.5-.63-1.58-1.17-1.79s-1.22.27-1.68.57a8.83,8.83,0,0,0-1.15.91,3.07,3.07,0,0,0-.69,1.2,4.73,4.73,0,0,0-.22,1.63c0,1.13.17,6.65.19,8.31,0,.66-.09,1.36-.06,2a10.63,10.63,0,0,0,.42,2.78c.71,1.13,2.63.07,3.19,1.14.78,1.48-2.87,1.86-3.61,2a28.77,28.77,0,0,0-4.61,1c-.41.13-2,.58-2.35.26-1.53-1.42,1.22-1.76,2-2.21a4.43,4.43,0,0,0,1.62-1.52,4.2,4.2,0,0,0,.33-2.87C146,138.33,145.76,132.91,145.57,127.5Z"/><path class="cls-4" d="M144.94,80.74c1,.11,2.77-.64,2.38.89-.28,1.12-3.19,1.14-4,1.24s-3.2,1-3.35-.5c-.09-.93.79-.75,1.26-1.24s.43-.75.35-1.66c-.06-.67-.13-1.33-.2-2s.11-2.49-.9-2.27c-.4.08-.64,1-.93,1.5a10.88,10.88,0,0,1-3.19,3.38,5.63,5.63,0,0,1-2.14.8,6.79,6.79,0,0,1-4-1.46A7.11,7.11,0,0,1,128,74.73a17.14,17.14,0,0,1,1.58-6.9c1-2.48,3.71-5.23,6.32-5.69a12.65,12.65,0,0,1,2.46-.32c.47,0,2.24.27,2.55-.21a6.68,6.68,0,0,0,.39-2.51c.27-3.53.93-14.94,1-15.59.12-.88.06-1.13-.74-1.32-1.14-.27-4.31,1.32-4.38-.43-.05-1.22,1.53-.79,2.45-.88.57-.06,1.12-.08,1.68-.13s2.07-.68,2.77-.39c1.18.48.53,3.28.57,4.43.07,2.07-.27,13.87-.39,15.54-.16,2.14,0,8.76,0,10s.17,5.8.15,7.16C144.33,78.33,144.15,80.45,144.94,80.74ZM140.8,67.85c-.08-.4.09-.75,0-1.13a5.49,5.49,0,0,0-.57-2.18,5.24,5.24,0,0,0-3-1.18,3.42,3.42,0,0,0-2,.54,5.89,5.89,0,0,0-2.72,4,31.85,31.85,0,0,0-.56,5.8c.06,1.43,0,3.53,1,4.68,1.29,1.49,4.33-1,5.39-2.65A28.87,28.87,0,0,0,140,72.2,23.66,23.66,0,0,0,140.8,67.85Z"/><path class="cls-4" d="M107.09,122.62c0-1.16.56-2.34-.66-2.8-.71-.26-4.4.56-3.38-1.53.51-1,4.2-.9,5-.92,2.62,0,2.63.62,2.88,2.75a47,47,0,0,1,.19,5.71c0,1.78-.29,3.53-.32,5.32,0,1.26-1.28,8.09-.2,9.4,1,1.16,2-.16,3.11.18,1.67.51,1.34,1.7,1.3,2-.16,1.13-1.36.86-2.09,1-.11-.1-4.11.46-5.13.56-.36,0-3.56.53-4.82.61-.85,0-2.15-.48-2-1.46s1.48-1.19,2.33-1.44,2.24-.45,2.57-1a4.35,4.35,0,0,0,.19-1.56C106,137.19,107.09,123.92,107.09,122.62Zm-.84-17.27c-3.53.28-1.51-6.37,2.07-5.11,1.18.41,1.88,2.72,1.46,3.75C109.05,105.84,107.62,106,106.25,105.35Z"/></svg>