<svg id="layer1" xmlns="http://www.w3.org/2000/svg" viewBox="0 0 221.1 221.1"><defs><style>.cls-1,.cls-5{fill:#fff;}.cls-1{stroke:#b28cdb;stroke-width:0.97px;}.cls-1,.cls-3{stroke-linecap:round;}.cls-1,.cls-3,.cls-4,.cls-5{stroke-miterlimit:10;}.cls-2{fill:#333;}.cls-3{fill:none;stroke-width:0.75px;}.cls-3,.cls-4,.cls-5{stroke:#333;}.cls-4{fill:#e4cffc;}.cls-4,.cls-5{stroke-width:0.5px;}.cls-6{fill:#3fd8e3;}.cls-7{fill:#3cb7bf;}.cls-8{fill:#d6b5fc;}.cls-9{fill:#b590e0;}</style></defs><title>Монтажная область 1</title><circle id="пунктир" class="cls-1" cx="110.55" cy="110.55" r="109.13"/><path class="cls-2" d="M134,181a11,11,0,0,1-2-3.25,22.28,22.28,0,0,1-1.18-3.57,17.56,17.56,0,0,1-.55-7.5,12.83,12.83,0,0,1,1.2-3.6,9.61,9.61,0,0,1,2.27-3,2.37,2.37,0,0,1,1.92-.49,1.73,1.73,0,0,1,1.23,1.51,1.54,1.54,0,0,1-.21,1,1.3,1.3,0,0,1-.84.56,1.28,1.28,0,0,1-1-.13,1.33,1.33,0,0,1-.36-.35l-.12-.22c0-.08-.09-.15,0-.25l.07,0c.11,0,.1.12.14.18a1.18,1.18,0,0,0,.11.19,1,1,0,0,0,.3.28,1.07,1.07,0,0,0,.81.06,1,1,0,0,0,.79-1.24,1.4,1.4,0,0,0-1-1.18,2,2,0,0,0-1.55.45,10.35,10.35,0,0,0-3,6.41,22.7,22.7,0,0,0,.68,7.17,20.06,20.06,0,0,0,2.58,6.72Z"/><path class="cls-2" d="M131.87,181.79a11.11,11.11,0,0,1-.57-3.67,22.29,22.29,0,0,1,.24-3.66,20.5,20.5,0,0,1,2.06-7.05,14.05,14.05,0,0,1,4.93-5.42,4.36,4.36,0,0,1,.88-.39,2.44,2.44,0,0,1,1-.07,2.12,2.12,0,0,1,.94.35,1.58,1.58,0,0,1,.58.82,1.62,1.62,0,0,1,.06,1,1,1,0,0,1-.8.63,1.26,1.26,0,0,1-1-.22.76.76,0,0,1-.25-.45,1.9,1.9,0,0,1,0-.25c0-.07,0-.17.11-.23h0c.13.09,0,.15.08.22a.64.64,0,0,0,0,.2.55.55,0,0,0,.19.32,1,1,0,0,0,.76.11.63.63,0,0,0,.53-.44,1.32,1.32,0,0,0-.1-.77,1.3,1.3,0,0,0-1.22-.83,2.09,2.09,0,0,0-.79.08,4.07,4.07,0,0,0-.75.38,12.55,12.55,0,0,0-4.41,5.36,26.76,26.76,0,0,0-2,6.77,30.24,30.24,0,0,0-.39,3.53,12.52,12.52,0,0,0,.27,3.48Z"/><path class="cls-3" d="M121.79,202.71l-.06-8.5"/><line class="cls-3" x1="108.59" y1="194.14" x2="108.58" y2="202.75"/><line class="cls-3" x1="95.41" y1="194.08" x2="95.38" y2="202.48"/><path class="cls-4" d="M79.53,193.84c-.23-18.9,11.35-31.66,28.88-31.64s28.83,14.13,28.34,32.22c0,0-12.51-.27-30-.29S79.53,193.84,79.53,193.84Z"/><circle class="cls-5" cx="140.53" cy="179.79" r="10.38"/><circle class="cls-5" cx="136.53" cy="184.04" r="10.38"/><ellipse cx="114.6" cy="175.98" rx="5.91" ry="5.81"/><ellipse cx="95.39" cy="180.29" rx="4.97" ry="4.86"/><ellipse cx="139.64" cy="176.77" rx="1.42" ry="1.51"/><ellipse cx="144.24" cy="172.18" rx="1.42" ry="1.51"/><path class="cls-6" d="M66.87,87.83a1.56,1.56,0,0,1-.31,0,1.49,1.49,0,0,1-1-.53,1,1,0,0,1-.14-.83,1.37,1.37,0,0,1,1.06-1,1.81,1.81,0,0,0,.44-.2c.6-.44.6-1,.54-2v-.22a14.82,14.82,0,0,1,0-1.64,11.7,11.7,0,0,0,0-1.87c-.14-1.3-.22-2.64-.25-4-.06-3.25-.74-12.44-.85-13.75,0-.28,0-.91,0-1.72,0-2.08,0-7.62-.83-8.19a.66.66,0,0,0-.41-.12,3.82,3.82,0,0,0-.63.09,3.87,3.87,0,0,1-.76.11,1.4,1.4,0,0,1-.56-.11,1.46,1.46,0,0,1-.88-1.11,1.2,1.2,0,0,1,.43-1.1,8.19,8.19,0,0,1,3.52-.82c.25,0,.47,0,.63-.07l.42-.05a16.06,16.06,0,0,1,2.19-.2,5.19,5.19,0,0,1,.89.06h.15c.42,0,1,.12,1.1,1.1.09.74-.47,1-.83,1.19a3.3,3.3,0,0,0-.32.18c-.89.57-1,.89-1.06,2.11a12.39,12.39,0,0,0,.11,2.11c.05.52.1,1,.11,1.51,0,1.27.11,2.62.19,3.93s.16,2.57.19,3.85v.1c.07,3,.37,3.47.46,3.55h0c.23,0,.47-.24.64-.41l.16-.16c.61-.56,1.25-1.19,1.85-1.79,1-1,1.89-2,2.77-3s1.54-1.74,2.37-2.59c1.09-1.13,3.21-3.7,4.34-5.08l.84-1,.21-.23a5.87,5.87,0,0,0,.9-1.12c.06-.21-.11-.53-.28-.83a1.67,1.67,0,0,1-.3-1.3,1.25,1.25,0,0,1,.81-.71,2.42,2.42,0,0,1,.94-.14A11,11,0,0,1,87.2,50l.11,0c.6.08,1.17.14,1.75.19l.69.07a1.65,1.65,0,0,1,1.51,1.14c0,.22.07.8-.74,1.24a1.68,1.68,0,0,1-.82.19A5.36,5.36,0,0,1,89,52.8a3.55,3.55,0,0,0-.55-.06.89.89,0,0,0-.44.1,5.59,5.59,0,0,0-1.16,1.46c-.17.26-.33.5-.46.68-.3.4-.61.75-.92,1.09s-.6.68-.88,1.06c-.46.6-2.62,3.08-3.29,3.83l-1.51,1.65c-1,1.11-2.26,2.45-2.78,3-.31.37-.61.73-.93,1.14l-.28.34.23.11a7.17,7.17,0,0,0,1.11.4,7.8,7.8,0,0,1,1.21.44,8.73,8.73,0,0,1,3.4,3.4l1.17,2.07c.76,1.36,1.48,2.65,2.35,4,.19.29.37.62.57.95a13.35,13.35,0,0,0,.88,1.42l.18.23a6.21,6.21,0,0,0,2,2,2.27,2.27,0,0,0,1,.17,4.34,4.34,0,0,0,.55,0,4.34,4.34,0,0,0,.94-.46c.53-.32,1.19-1,1.2-1.37A3.2,3.2,0,0,0,92,78.79c-.22-.27-.34-.29-.45-.29a2.32,2.32,0,0,0-.47.09l-.27.07-.17.08a1.63,1.63,0,0,1-.75.25.81.81,0,0,1-.48-.16c-.59-.47-.31-1.7-.1-2.08a2.39,2.39,0,0,1,2.14-1.13,2.63,2.63,0,0,1,1,.18c1.19.49,2,2.09,2.34,3.47a4.08,4.08,0,0,1-2.07,4.38A8.51,8.51,0,0,1,88.81,85a3,3,0,0,1-.75-.09,7,7,0,0,1-2.44-1.54l-.37-.29a20.13,20.13,0,0,1-2.65-3.83l-.2-.32-.4-.62c-.36-.55-.7-1.07-1.07-1.7l-.12-.21a38.78,38.78,0,0,0-3.39-5.21,3.75,3.75,0,0,0-2.6-.89,7.83,7.83,0,0,0-2.29.38l-.41.12c-.74.2-1.14.33-1.21.87a4.49,4.49,0,0,0,.08,1,6,6,0,0,1,.08.89c0,.58,0,2.34,0,4.13,0,2.11,0,4.27,0,4.61,0,.08,0,.21,0,.38a7.38,7.38,0,0,0,0,1.63s0,0,.16,0h.4c.52,0,.83.31.91.93a1.22,1.22,0,0,1-.23.94,3,3,0,0,1-2,.77,5.74,5.74,0,0,0-.6.1,7.63,7.63,0,0,0-.9.32A5.46,5.46,0,0,1,66.87,87.83Z"/><path class="cls-7" d="M69.42,48.9a5.73,5.73,0,0,1,.84.06c.47.07.83,0,.93.78s-.52.71-1,1c-1,.65-1.15,1.08-1.23,2.41s.21,2.49.23,3.65c0,2.5.32,5.19.38,7.78,0,.79,0,3.72.66,4a.63.63,0,0,0,.22,0c.41,0,.75-.44,1-.68.61-.56,1.25-1.19,1.85-1.79,1.83-1.83,3.37-3.77,5.14-5.6,1.5-1.55,4.83-5.68,5.19-6.09a6.81,6.81,0,0,0,1.2-1.5c.27-.92-1.51-2,0-2.59a2.07,2.07,0,0,1,.8-.12,10.89,10.89,0,0,1,1.59.16c.85.12,1.64.18,2.46.27,1,.1,1.77,1,.63,1.67a1.31,1.31,0,0,1-.64.15c-.41,0-.84-.12-1.23-.12a1.29,1.29,0,0,0-.64.15,10.49,10.49,0,0,0-1.72,2.23c-.6.79-1.23,1.39-1.8,2.15-.44.58-2.56,3-3.27,3.81s-3.44,3.72-4.29,4.7c-.32.37-.62.74-1,1.15-.6.77-.77.58.08,1,.67.35,1.68.51,2.32.85a8.3,8.3,0,0,1,3.24,3.25c1.21,2.07,2.21,4,3.54,6.08.46.72.94,1.69,1.47,2.39a7.32,7.32,0,0,0,2.28,2.29,2.67,2.67,0,0,0,1.18.21,4.67,4.67,0,0,0,.65,0,4,4,0,0,0,1-.5C92.14,81.78,93,81,93,80.42a3.75,3.75,0,0,0-.73-1.88.94.94,0,0,0-.74-.41,4.28,4.28,0,0,0-.82.16c-.19,0-.53.33-.84.33a.4.4,0,0,1-.25-.09c-.37-.29-.18-1.27,0-1.61A2.05,2.05,0,0,1,91.42,76a2.16,2.16,0,0,1,.81.15c1.09.45,1.85,2,2.12,3.2a3.7,3.7,0,0,1-1.9,4,8,8,0,0,1-3.64,1.27,2.39,2.39,0,0,1-.66-.08,8.51,8.51,0,0,1-2.66-1.76,25.58,25.58,0,0,1-2.77-4c-.52-.81-1-1.46-1.47-2.31a40.12,40.12,0,0,0-3.58-5.51,4.15,4.15,0,0,0-2.85-1,8.2,8.2,0,0,0-2.4.39c-.83.26-1.75.34-1.88,1.3a18.68,18.68,0,0,0,.16,1.91c0,1.26,0,8.1,0,8.73a6.91,6.91,0,0,0,0,2.23.54.54,0,0,0,.47.2l.4,0c.25,0,.47.09.54.61.17,1.3-1.77,1.19-2.57,1.4a12.64,12.64,0,0,1-2.73.81l-.25,0c-.53-.08-1-.3-.88-.91s.9-.63,1.35-1c.86-.63.74-1.5.69-2.51-.06-1.18.15-2.37,0-3.53-.13-1.31-.21-2.63-.24-4-.07-3.21-.74-12.38-.86-13.77s.18-9.31-1-10.18a1,1,0,0,0-.63-.19c-.46,0-1,.19-1.39.19a1,1,0,0,1-.42-.08A.93.93,0,0,1,62.9,50c.67-.56,3.07-.69,4-.8a19.47,19.47,0,0,1,2.56-.26m0-.75a17.76,17.76,0,0,0-2.24.2l-.42.06-.62.07c-1.64.17-3,.35-3.71.9a1.54,1.54,0,0,0-.57,1.45A1.79,1.79,0,0,0,63,52.22a1.64,1.64,0,0,0,.71.14,4.37,4.37,0,0,0,.84-.11,3.17,3.17,0,0,1,.55-.08.33.33,0,0,1,.19,0c.63.71.67,6.12.68,7.9,0,.83,0,1.43,0,1.74.11,1.26.79,10.53.86,13.73,0,1.36.11,2.72.24,4a12.14,12.14,0,0,1,0,1.81,15.51,15.51,0,0,0,0,1.68v.22c.06,1,0,1.33-.39,1.65a1.33,1.33,0,0,1-.35.14A1.73,1.73,0,0,0,65,86.37a1.37,1.37,0,0,0,.2,1.12,1.78,1.78,0,0,0,1.29.69,2.31,2.31,0,0,0,.37,0,5.8,5.8,0,0,0,2.06-.53,7.07,7.07,0,0,1,.85-.31l.56-.09a3.26,3.26,0,0,0,2.27-.91,1.6,1.6,0,0,0,.3-1.22,1.25,1.25,0,0,0-1.28-1.26H71.4a11.8,11.8,0,0,1,0-1.26c0-.17,0-.31,0-.39,0-.35,0-2.39,0-4.56,0-1.81,0-3.6,0-4.19a8,8,0,0,0-.09-.94,4.41,4.41,0,0,1-.08-.87c0-.25.13-.34.94-.56l.42-.12a7.46,7.46,0,0,1,2.18-.36,3.36,3.36,0,0,1,2.35.79,33.21,33.21,0,0,1,3.31,5.12l.12.2c.38.65.72,1.17,1.08,1.72l.41.63.18.3A19.94,19.94,0,0,0,85,83.34l.36.29A7.21,7.21,0,0,0,88,85.24a3.3,3.3,0,0,0,.85.1,8.93,8.93,0,0,0,4-1.37,4.45,4.45,0,0,0,2.24-4.8c-.31-1.35-1.16-3.14-2.57-3.72a3,3,0,0,0-1.09-.2A2.78,2.78,0,0,0,89,76.57c-.23.43-.63,1.9.2,2.55a1.14,1.14,0,0,0,.71.25,1.86,1.86,0,0,0,.92-.3l.13-.06.23-.06a2.09,2.09,0,0,1,.38-.07h0s.06,0,.17.15a3,3,0,0,1,.55,1.36,2.77,2.77,0,0,1-1,1.07,3.78,3.78,0,0,1-.84.42h-.46a2,2,0,0,1-.82-.12,6,6,0,0,1-1.87-1.85L87,79.69a15.71,15.71,0,0,1-.86-1.38c-.19-.34-.39-.68-.58-1-.86-1.33-1.57-2.61-2.33-4-.38-.68-.77-1.38-1.18-2.08a9.07,9.07,0,0,0-3.55-3.54,7.08,7.08,0,0,0-1.27-.47c-.3-.09-.6-.18-.85-.28.34-.44.62-.78.9-1.1.5-.59,1.76-2,2.77-3l1.51-1.65c.61-.68,2.83-3.22,3.31-3.85.27-.37.56-.69.86-1s.62-.7.94-1.11c.15-.19.31-.45.48-.71a5.74,5.74,0,0,1,1-1.33.46.46,0,0,1,.25-.05,3.37,3.37,0,0,1,.5.05,5.32,5.32,0,0,0,.73.07,2,2,0,0,0,1-.24,1.52,1.52,0,0,0,.93-1.65,2,2,0,0,0-1.84-1.43l-.69-.07c-.59-.06-1.15-.11-1.74-.2h-.12a11.17,11.17,0,0,0-1.58-.15,2.94,2.94,0,0,0-1.08.17,1.64,1.64,0,0,0-1,.93,1.94,1.94,0,0,0,.32,1.61,1.86,1.86,0,0,1,.25.56,8.83,8.83,0,0,1-.82,1L83.1,54c-.1.11-.41.49-.84,1C81.12,56.34,79,58.9,77.93,60c-.83.85-1.62,1.74-2.38,2.6s-1.79,2-2.76,3c-.73.73-1.31,1.29-1.83,1.77l-.18.17s-.11.12-.18.18a14.2,14.2,0,0,1-.27-3.06v-.1c0-1.28-.12-2.6-.19-3.87S70,58.06,70,56.79c0-.51-.07-1-.12-1.54a12.87,12.87,0,0,1-.11-2c.07-1.17.16-1.34.89-1.82.09-.06.19-.1.28-.15a1.5,1.5,0,0,0,1-1.58,1.42,1.42,0,0,0-1.42-1.42l-.14,0a7.12,7.12,0,0,0-1-.06Z"/><path class="cls-6" d="M95.9,81.76a2,2,0,0,1-1.38-.59,1.12,1.12,0,0,1-.28-.9c.13-.9,1-1.12,1.55-1.27l.31-.08a3.71,3.71,0,0,1,.46-.13c.34-.09,1-.26,1.07-.44a3,3,0,0,0,.08-.93c0-1,.22-5,.44-8.27.12-1.91.23-3.56.23-3.91s0-.45.05-.67c.08-.69.06-.88-.26-1h-.92c-.67,0-1.32-.06-1.61-.52a1.09,1.09,0,0,1,0-1.08c.36-.78,1.9-.89,3.51-.89h.42c1.86,0,2,.68,2.19,2.23a35.1,35.1,0,0,1,.14,4.06v.22c0,.69-.06,1.38-.11,2.05s-.1,1.21-.11,1.82c0,.25-.06.7-.13,1.34-.17,1.39-.54,4.65-.08,5.24.14.19.24.21.34.21a1.52,1.52,0,0,0,.46-.11A2.43,2.43,0,0,1,103,78a1.34,1.34,0,0,1,.4.06,1.51,1.51,0,0,1,1.15,1.81c-.14,1-1,1-1.44,1a1.56,1.56,0,0,0-.31,0l-.18,0,0,0c-.37,0-1.34.15-2.07.25-.52.07-1,.14-1.24.16l-.59.09c-.78.12-2.08.31-2.72.35Zm3.23-28.43a2.48,2.48,0,0,1-1-.24H98a1.38,1.38,0,0,1-1.25-.69A2.69,2.69,0,0,1,97,49.82a2.34,2.34,0,0,1,2-1.31,2.11,2.11,0,0,1,.74.14,2,2,0,0,1,1,1.08,3.1,3.1,0,0,1,.23,2.13A1.91,1.91,0,0,1,99.13,53.33Z"/><path class="cls-7" d="M99,48.89a1.74,1.74,0,0,1,.61.12c.8.29,1.28,2,1,2.72S99.73,53,99.13,53a2.14,2.14,0,0,1-.95-.25H98c-2,0-1.05-3.83.95-3.83m.6,12.55c1.64,0,1.66.48,1.83,2a37.85,37.85,0,0,1,.13,4.14c0,1.3-.21,2.57-.23,3.86,0,.92-.87,5.87-.13,6.82a.78.78,0,0,0,.64.36c.38,0,.78-.27,1.2-.27a.87.87,0,0,1,.28,0,1.14,1.14,0,0,1,.89,1.44c-.11.82-.93.62-1.43.7,0,0,0,0-.07,0-.43,0-2.79.35-3.43.42-.25,0-2.43.38-3.29.44H95.9c-.57,0-1.38-.38-1.29-1.06s1-.86,1.6-1S97.74,79,98,78.53a3.33,3.33,0,0,0,.13-1.13c-.07-1.58.67-11.21.67-12.16s.38-1.69-.45-2a1.29,1.29,0,0,0-.45,0h-.61c-.82,0-1.7-.1-1.25-1.07.31-.65,2.29-.67,3.16-.67h.43M99,48.14h0c-1.66,0-2.81,1.74-2.81,3.3a1.84,1.84,0,0,0,1.86,2,2.76,2.76,0,0,0,1.09.24A2.29,2.29,0,0,0,101.3,52a3.45,3.45,0,0,0-.24-2.42,2.28,2.28,0,0,0-1.2-1.27,2.43,2.43,0,0,0-.87-.16Zm.6,12.55h-.43c-2,0-3.41.19-3.84,1.1a1.44,1.44,0,0,0,0,1.44c.45.7,1.45.7,1.93.7h.84a2.64,2.64,0,0,1,0,.59,5.27,5.27,0,0,0,0,.71c0,.34-.12,2.06-.24,3.88-.21,3.25-.48,7.29-.43,8.31a4.17,4.17,0,0,1,0,.72,4.49,4.49,0,0,1-.83.27l-.49.14-.29.08c-.58.15-1.66.43-1.82,1.57a1.53,1.53,0,0,0,.36,1.21,2.34,2.34,0,0,0,1.67.71H96c.65,0,2-.24,2.76-.36l.56-.09c.24,0,.72-.08,1.25-.16s1.45-.19,1.88-.23l0,0,.36-.06.27,0a1.58,1.58,0,0,0,1.78-1.32,1.91,1.91,0,0,0-1.4-2.26,1.7,1.7,0,0,0-.51-.08,2.67,2.67,0,0,0-.86.18l-.33.09-.06-.07c-.35-.57,0-3.88.16-5,.07-.64.13-1.11.13-1.37,0-.6.06-1.19.11-1.81s.11-1.36.12-2.06v-.23a35.65,35.65,0,0,0-.14-4v-.1c-.17-1.59-.39-2.56-2.56-2.56Z"/><path class="cls-8" d="M119.59,85.1c-1.22,0-1.48-.73-1.53-1.16a1.12,1.12,0,0,1,.88-1.25,1.39,1.39,0,0,0,.45-.25c.35-.37.35-.4.29-.92,0-.11,0-.25-.05-.4,0-.6-.12-1.2-.18-1.79l0-.16c0-.12,0-.28,0-.47,0-.39,0-1.43-.33-1.43s-.35.5-.45.72a4.08,4.08,0,0,1-.28.59,10.79,10.79,0,0,1-3.22,3.4,5.87,5.87,0,0,1-2.29.85h0a6.91,6.91,0,0,1-4.2-1.52,7.28,7.28,0,0,1-2.26-4.85A16.82,16.82,0,0,1,108,69.6c1-2.46,3.72-5.29,6.43-5.77l.38-.07a11.05,11.05,0,0,1,2-.25l.49,0c.27,0,.62.05.95.05.65,0,.78-.11.78-.12a4.81,4.81,0,0,0,.3-1.82c0-.16,0-.31,0-.44.13-1.72.36-5.38.56-8.67.24-3.85.38-6.22.43-6.53.1-.75.09-.75-.44-.87a.72.72,0,0,0-.22,0,7.3,7.3,0,0,0-1.29.19,8.87,8.87,0,0,1-1.63.23c-1.19,0-1.4-.74-1.41-1.17a1.11,1.11,0,0,1,.28-.86,1.82,1.82,0,0,1,1.34-.4l.79,0h.31c.33,0,.65-.06,1-.08l.66,0a5.3,5.3,0,0,0,.81-.19,6.09,6.09,0,0,1,1.48-.27,1.44,1.44,0,0,1,.58.1c1.12.45,1,2.2.85,3.6,0,.41-.07.78-.06,1,.07,2.06-.26,13.54-.38,15.19-.16,2.13,0,8.93,0,9.7,0,.28,0,.83,0,1.5.05,1.8.12,4.51.1,5.48v.35c0,1.53.06,2.36.34,2.46,0,0,0,0,.06,0h.06a5,5,0,0,0,.65,0c.24,0,.48,0,.7,0A1,1,0,0,1,126,83.28c-.29,1.18-2.46,1.34-3.76,1.44l-.48,0-.58.11A7.71,7.71,0,0,1,119.59,85.1Zm-3.75-19.34a3,3,0,0,0-1.74.47,5.37,5.37,0,0,0-2.47,3.62l-.13.82a25.51,25.51,0,0,0-.41,4.76l0,.49c0,1.31.09,2.94.86,3.83a.91.91,0,0,0,.74.32c1.28,0,3.18-1.69,3.92-2.86a22.57,22.57,0,0,0,1.31-2.93l.17-.43a23.61,23.61,0,0,0,.77-4.09,2,2,0,0,1,0-.64,2.13,2.13,0,0,0,0-.42,4.86,4.86,0,0,0-.5-2,5.06,5.06,0,0,0-2.58-1v-.38Z"/><path class="cls-9" d="M122,42.91a1.16,1.16,0,0,1,.44.07c1.15.47.52,3.2.56,4.32.07,2-.27,13.51-.39,15.14-.15,2.08,0,8.53,0,9.73s.16,5.66.14,7c0,.82-.19,2.89.58,3.16l.24,0c.43,0,.94-.1,1.35-.1s.92.17.73,1c-.27,1.1-3.12,1.11-3.92,1.21a16.28,16.28,0,0,1-2.11.33c-.59,0-1.09-.18-1.15-.82-.09-.9.77-.72,1.22-1.2s.43-.73.35-1.62q-.09-1-.21-2c-.06-.58.1-2.23-.72-2.23l-.15,0c-.38.08-.62,1-.9,1.47a10.62,10.62,0,0,1-3.11,3.28,5.44,5.44,0,0,1-2.09.78h0A6.66,6.66,0,0,1,108.89,81a6.91,6.91,0,0,1-2.13-4.58,16.67,16.67,0,0,1,1.54-6.72c1-2.41,3.61-5.09,6.15-5.54a12.4,12.4,0,0,1,2.35-.31h0c.25,0,.85.07,1.4.07s1-.05,1.09-.28a6.51,6.51,0,0,0,.39-2.44c.25-3.43.89-14.55,1-15.18.12-.87,0-1.11-.72-1.29a1.48,1.48,0,0,0-.31,0c-.78,0-2,.42-2.91.42-.6,0-1-.18-1.05-.81s.58-.86,1.25-.86l.79,0,.35,0c.55-.06,1.09-.08,1.63-.12a21.35,21.35,0,0,1,2.26-.46m-9.28,37.53c1.43,0,3.43-1.75,4.24-3A30.18,30.18,0,0,0,118.46,74a23.49,23.49,0,0,0,.8-4.24c-.07-.39.09-.73,0-1.1a5.7,5.7,0,0,0-.56-2.12,5.14,5.14,0,0,0-2.89-1.16h0a3.31,3.31,0,0,0-1.92.52,5.76,5.76,0,0,0-2.66,3.88,31.26,31.26,0,0,0-.53,5.65c0,1.39,0,3.44,1,4.56a1.29,1.29,0,0,0,1,.44M122,42.16h0a6.66,6.66,0,0,0-1.58.29,4.35,4.35,0,0,1-.74.17l-.65.05-1,.07-.27,0H117a2.13,2.13,0,0,0-1.61.51,1.49,1.49,0,0,0-.39,1.13,1.58,1.58,0,0,0,1.8,1.53,9.6,9.6,0,0,0,1.7-.23,6.45,6.45,0,0,1,1.21-.19h.14l.18,0c0,.08,0,.2,0,.4s-.2,2.72-.44,6.58c-.2,3.25-.42,6.94-.55,8.65,0,.14,0,.29,0,.46a6.24,6.24,0,0,1-.19,1.54,3.8,3.8,0,0,1-.51,0c-.31,0-.65,0-.92,0l-.47,0h0a11.72,11.72,0,0,0-2.11.25l-.37.07c-2.95.52-5.66,3.48-6.72,6a17.55,17.55,0,0,0-1.59,7,7.65,7.65,0,0,0,2.38,5.13,7.32,7.32,0,0,0,4.39,1.61h.06a6.29,6.29,0,0,0,2.5-.9,11.35,11.35,0,0,0,3.33-3.53,5.27,5.27,0,0,0,.31-.63l0-.06c0,.23,0,.48,0,.63s0,.38,0,.5l0,.19c.06.58.13,1.17.18,1.75,0,.16,0,.3,0,.42a1.73,1.73,0,0,1,0,.35,1.19,1.19,0,0,1-.21.26,1.39,1.39,0,0,1-.33.17,1.48,1.48,0,0,0-1.1,1.63c0,.45.32,1.49,1.9,1.49a8.31,8.31,0,0,0,1.65-.23l.55-.11.46,0c1.48-.11,3.73-.27,4.1-1.72a1.37,1.37,0,0,0-1.46-1.89c-.24,0-.49,0-.74,0l-.57,0a6.37,6.37,0,0,1-.12-2.07c0-.13,0-.25,0-.35,0-1,0-3.55-.1-5.43,0-.7,0-1.27,0-1.57,0-2.57-.11-7.9,0-9.67s.46-13.16.39-15.22c0-.23,0-.6.05-1,.13-1.45.3-3.43-1.07-4a1.86,1.86,0,0,0-.73-.13Zm-9.28,37.53a.53.53,0,0,1-.45-.18c-.69-.79-.74-2.42-.78-3.6,0-.17,0-.34,0-.5a25.67,25.67,0,0,1,.41-4.68c0-.28.09-.56.13-.83a5,5,0,0,1,2.29-3.35,2.7,2.7,0,0,1,1.56-.42h0a4.94,4.94,0,0,1,2.29.84,4.2,4.2,0,0,1,.41,1.7v.07a1.26,1.26,0,0,1,0,.32,2.62,2.62,0,0,0,0,.76,26.77,26.77,0,0,1-.74,3.89,4.47,4.47,0,0,0-.18.44A21.65,21.65,0,0,1,116.31,77c-.77,1.21-2.58,2.68-3.6,2.68Z"/><path class="cls-6" d="M146.79,100.48h-.34a6.83,6.83,0,0,1-3.21-.93A7.49,7.49,0,0,1,141.31,97a6.25,6.25,0,0,1,.57-5.7,4.4,4.4,0,0,1,3.72-2.15h.3a3.7,3.7,0,0,1,2.68,1.71,2.11,2.11,0,0,1,.16,2,1.09,1.09,0,0,1-1,.58,1.91,1.91,0,0,1-.55-.09,1.53,1.53,0,0,1-.86-1,1.77,1.77,0,0,0-.22-.42,1,1,0,0,0-.71-.28,1.46,1.46,0,0,0-1,.52,3.5,3.5,0,0,0-.33.43c-.08.1-.15.21-.23.3a5.29,5.29,0,0,0-.21,2.68c.72,1.56,1.35,2,2.82,2,2.82,0,5.12-1.71,7.09-5.23.42-.76,1.65-3.39,2.31-4.8l.55-1.18c.76-1.6,1.91-4,1.63-5.57-.15-.85-3.31-5.84-5.4-9.14-1.05-1.66-2-3.09-2.3-3.71s-.73-1.3-1.13-1.42a.69.69,0,0,0-.22,0,3.19,3.19,0,0,0-.52.06,3.72,3.72,0,0,1-.65.08,1.3,1.3,0,0,1-1-.37,1.53,1.53,0,0,1-.11-1.62c.25-.41.89-.56,1.68-.71l.4-.08a19,19,0,0,1,3.81-.62,1.93,1.93,0,0,1,1.19.28,1,1,0,0,1,.48,1.19l0,.1a1.92,1.92,0,0,1-.75.87,1.71,1.71,0,0,0-.33.29c0,.2.31.62.56.92a5.54,5.54,0,0,1,.38.52l.12.21c.53.92,1,1.79,1.61,2.68.68,1,1.29,2.13,1.89,3.18.48.84,1,1.68,1.46,2.49.32.5.48.52.49.52.22,0,.52-.78.91-2.31.07-.27.14-.53.2-.74.58-2,2.6-7.79,3-8.61.08-.15.15-.32.24-.49.43-.92,1-2.18,2.38-2.18a2,2,0,0,1,.41,0,1.28,1.28,0,0,1,1,.59,1.52,1.52,0,0,1-.23,1.37l-.14.3c-.39.94-2.44,6.86-3.67,10.4-.54,1.57-1,2.76-1.07,3.06L162,80c-.34,1-.68,1.93-.78,2.19l-.08.21c-1,2.51-1.62,4.13-1.86,4.81s-4.05,7.81-4.72,8.68a11.51,11.51,0,0,1-4.92,3.92A8.9,8.9,0,0,1,146.79,100.48Z"/><path class="cls-7" d="M166.43,62.59l.35,0c1.33.23.65,1.08.36,1.75-.56,1.34-4.38,12.48-4.74,13.47s-1.32,3.79-1.51,4.25-1.54,3.89-1.94,5c-.22.63-4,7.71-4.67,8.57a11.12,11.12,0,0,1-4.75,3.79,8.35,8.35,0,0,1-2.74.61h-.31a6.38,6.38,0,0,1-3-.86,7.09,7.09,0,0,1-1.8-2.35c-1.29-2.93.55-7.33,3.95-7.33h.28a3.36,3.36,0,0,1,2.39,1.55c.43.65.43,2-.53,2a1.58,1.58,0,0,1-.44-.08c-.56-.17-.59-1-.94-1.33a1.45,1.45,0,0,0-1-.38,1.85,1.85,0,0,0-1.32.64c-.21.24-.38.52-.57.76a5.24,5.24,0,0,0-.26,3.07c.78,1.69,1.54,2.23,3.16,2.24h.05c3.44,0,5.75-2.53,7.36-5.41.55-1,2.29-4.77,2.72-5.68.76-1.61,2.14-4.33,1.82-6.12-.24-1.36-6.66-11.05-7.75-13-.33-.59-.8-1.43-1.34-1.59a1.14,1.14,0,0,0-.33,0c-.38,0-.79.14-1.17.14a1,1,0,0,1-.7-.26A1.21,1.21,0,0,1,147,64.9c.25-.39,1.39-.5,1.86-.62a18.72,18.72,0,0,1,3.72-.61,1.62,1.62,0,0,1,1,.2c.5.37.41.5.32.91s-1,.84-1.08,1.13c-.09.6.71,1.28,1,1.74.57,1,1.12,1.94,1.74,2.9,1.21,1.87,2.21,3.83,3.36,5.67.3.49.57.69.8.69.77,0,1.15-2.25,1.47-3.32.6-2,2.59-7.76,3-8.54s1-2.46,2.29-2.46m0-.75c-1.59,0-2.27,1.43-2.72,2.38q-.12.25-.24.48c-.46.86-2.46,6.66-3.06,8.68-.06.22-.13.48-.2.76a11.9,11.9,0,0,1-.59,1.87l-.13-.19c-.5-.8-1-1.66-1.45-2.48-.6-1-1.22-2.14-1.91-3.2-.57-.88-1.07-1.75-1.6-2.67l-.12-.2a3.83,3.83,0,0,0-.41-.57,6.47,6.47,0,0,1-.42-.57l.13-.1a2.37,2.37,0,0,0,.87-1v-.08l0-.09a1.31,1.31,0,0,0-.61-1.58,2.3,2.3,0,0,0-1.42-.35,18.89,18.89,0,0,0-3.9.63l-.37.07a2.86,2.86,0,0,0-1.94.87,1.9,1.9,0,0,0,.17,2.1,1.69,1.69,0,0,0,1.22.47,3.85,3.85,0,0,0,.71-.08,3.23,3.23,0,0,1,.46-.06.2.2,0,0,1,.11,0c.26.08.73.92.91,1.24.36.63,1.22,2,2.32,3.73,1.8,2.86,5.17,8.17,5.34,9,.26,1.44-.91,3.88-1.6,5.34l-.16.33-.39.84c-.66,1.41-1.88,4-2.3,4.79-1.9,3.39-4.09,5-6.71,5-1.27,0-1.83-.28-2.53-1.81a4.66,4.66,0,0,1,.22-2.35l.18-.25c.11-.15.21-.29.31-.4a1.1,1.1,0,0,1,.76-.4.65.65,0,0,1,.46.19s.08.18.13.29a1.86,1.86,0,0,0,1.09,1.2,2.28,2.28,0,0,0,.66.11,1.48,1.48,0,0,0,1.33-.78,2.49,2.49,0,0,0-.17-2.35,4.13,4.13,0,0,0-3-1.89h-.33a4.81,4.81,0,0,0-4,2.33,6.61,6.61,0,0,0-.6,6.05A7.46,7.46,0,0,0,143,99.85a7.05,7.05,0,0,0,3.38,1h.37a9.14,9.14,0,0,0,3-.65,11.79,11.79,0,0,0,5.1-4c.67-.88,4.52-8,4.78-8.79.35-1,1.47-3.83,1.83-4.76l.1-.24c.11-.27.44-1.21.78-2.2.28-.8.57-1.61.74-2.07.11-.3.52-1.5,1.07-3.07,1.22-3.54,3.27-9.45,3.66-10.37a2.38,2.38,0,0,1,.13-.29,1.83,1.83,0,0,0,.22-1.7,1.7,1.7,0,0,0-1.28-.79,2.59,2.59,0,0,0-.48,0Z"/><path class="cls-6" d="M60.55,151.86a2.38,2.38,0,0,1-1.46-.32,1.11,1.11,0,0,1-.38-.92,2.18,2.18,0,0,1,.69-1.49,2.94,2.94,0,0,1,1.14-.36c.19,0,.37-.06.52-.1l.47-.14c1.18-.33,1.74-.53,1.79-1.57a14.67,14.67,0,0,0-.08-1.74,14.5,14.5,0,0,1-.09-1.47c0-1.66-1-27.24-1.08-29.35,0-.41,0-.93-.06-1.52-.07-1.75-.19-5-.46-5.44a.53.53,0,0,0-.44-.17,2.67,2.67,0,0,0-.55.07l-.24,0c-.93.14-5.12.37-7.63.51l-1.84.11c-.85.11-1.05.8-1.26,1.91l-.07.35c-.47,2.26-.92,2.54-1.07,2.63a1.28,1.28,0,0,1-.63.19c-1,0-1.61-1.35-1.64-2.07a16.32,16.32,0,0,1,.1-2.1v-.15c.05-.54.07-1.05.08-1.55a18.27,18.27,0,0,1,.12-2l0-.28c.24-2.45.66-5,1.95-5a1.52,1.52,0,0,1,1.08.62,2.5,2.5,0,0,1,.38,1.81c0,.17-.12.59-.14.69a5.11,5.11,0,0,0,.28,1.36.93.93,0,0,1,.45.12h2.79c1.07,0,2.48,0,3.92-.15.73-.07,1.48-.1,2.21-.13.57,0,1.12,0,1.66-.08,2.93-.21,5.78-.33,8.8-.44l1,0,.8,0c1.25,0,3.86,0,4.27-.69a5.94,5.94,0,0,0,.3-.81c.5-1.46,1.18-3.47,2.38-3.47a1.42,1.42,0,0,1,1,.54c.67.74.32,2.1.09,3l-.08.29a7.53,7.53,0,0,0-.19,3.14l.09.47a2.38,2.38,0,0,1-.61,2.65,1.76,1.76,0,0,1-1.21.51,2.15,2.15,0,0,1-1.49-.69,2.31,2.31,0,0,1-.5-1.18,1.76,1.76,0,0,0-.21-.65,39.18,39.18,0,0,0-5.57-.29c-.73,0-1.28,0-1.5,0l-.21,0a2.26,2.26,0,0,0-1.83.89c-.41.54,0,4.26.11,5.48,0,.4.07.73.09.92.17,2.37.31,4.71.45,7.07l.07,1.16c.07,1.25.23,6.52.39,11.62s.32,10.49.38,11.25c0,.35,0,.71,0,1.07s0,.53,0,.8v.28a2.78,2.78,0,0,0,.1.77h0a1.9,1.9,0,0,0,.46-.07,2.35,2.35,0,0,0,.42-.15,2.45,2.45,0,0,1,.89-.24,1.08,1.08,0,0,1,.88.46,2.12,2.12,0,0,1,0,1.87,1.73,1.73,0,0,1-1.07.63c-1.14.2-6.48,1.14-7.15,1.24A13.86,13.86,0,0,1,60.55,151.86Z"/><path class="cls-7" d="M78.67,99.13a1,1,0,0,1,.75.42c.61.67.11,2.19-.07,3a7.77,7.77,0,0,0-.2,3.3c.2,1.12.57,1.86-.41,2.77a1.36,1.36,0,0,1-.95.41,1.74,1.74,0,0,1-1.22-.58c-.45-.44-.35-1.49-.73-1.83s-3.7-.4-5.83-.4c-.72,0-1.29,0-1.54,0a2.89,2.89,0,0,0-2.29,1.06c-.61.81,0,5.63.12,6.65.2,2.77.36,5.48.52,8.23.15,2.53.65,21.36.78,22.88.05.61,0,1.24.06,1.86,0,.95,0,1.4.55,1.4a2.18,2.18,0,0,0,.5-.07,5.72,5.72,0,0,1,1.22-.38.69.69,0,0,1,.58.31,1.8,1.8,0,0,1,0,1.44,1.32,1.32,0,0,1-.81.46c-1.19.21-6.5,1.14-7.15,1.24a13.36,13.36,0,0,1-2,.19,2.08,2.08,0,0,1-1.22-.25c-.55-.44,0-1.58.29-1.81a6.43,6.43,0,0,1,1.54-.4c1.29-.39,2.47-.51,2.53-2.05,0-1.06-.16-2.16-.16-3.23,0-1.73-1-27.54-1.08-29.37s-.18-6.67-.61-7.17a.9.9,0,0,0-.73-.31,5.21,5.21,0,0,0-.85.11c-1.29.19-9.16.58-9.46.62-1.33.17-1.43,1.51-1.64,2.56-.12.54-.48,2.12-.91,2.38a.82.82,0,0,1-.43.13c-.72,0-1.24-1.11-1.26-1.71a16,16,0,0,1,.11-2.19c.11-1.25,0-2.26.19-3.56.08-.66.37-4.9,1.61-4.9a1.13,1.13,0,0,1,.8.49,2.2,2.2,0,0,1,.3,1.46c0,.17-.13.63-.15.73a4.5,4.5,0,0,0,.48,1.91h0c1.16,0,2.29,0,3.42,0,1.31,0,2.61,0,3.94-.16s2.63-.12,3.86-.21c3.27-.23,6.5-.35,9.82-.48,1.29,0,4.75.1,5.37-.87.32-.51,1.1-4.11,2.36-4.11M50,104.82c.23,0,.56.11-.13.11h0c-.07-.08,0-.11.13-.11m28.64-6.44c-1.47,0-2.2,2.15-2.73,3.72-.1.29-.22.65-.27.74-.25.3-1.58.48-4,.51h-.8l-1,0c-3,.12-5.89.23-8.84.45l-1.64.08c-.73,0-1.49.06-2.24.13-1.42.13-2.81.15-3.87.15h-2.7l-.27-.09a4.81,4.81,0,0,1-.18-1c0-.13.09-.51.12-.62a2.83,2.83,0,0,0-.46-2.16,1.83,1.83,0,0,0-1.36-.75c-1.58,0-2,2.54-2.32,5.29,0,.12,0,.21,0,.27-.09.75-.11,1.41-.13,2s0,1-.07,1.53v.14a15.48,15.48,0,0,0-.1,2.16c0,.87.75,2.42,2,2.42a1.56,1.56,0,0,0,.82-.24c.22-.13.75-.45,1.25-2.87,0-.11,0-.23.07-.36.22-1.14.38-1.54.94-1.61l1.84-.11c3.38-.18,6.76-.38,7.63-.51l.26,0a3.29,3.29,0,0,1,.48-.06c.07,0,.1,0,.13,0a40.34,40.34,0,0,1,.4,5.23c0,.58,0,1.11.06,1.52.11,2.11,1.07,27.68,1.08,29.34,0,.5,0,1,.08,1.49a14.29,14.29,0,0,1,.08,1.7c0,.74-.29.88-1.51,1.22l-.48.14-.48.09a3.22,3.22,0,0,0-1.29.42,2.56,2.56,0,0,0-.84,1.79,1.46,1.46,0,0,0,.51,1.22,2.69,2.69,0,0,0,1.7.41,14.88,14.88,0,0,0,2.15-.2c.68-.1,6-1,7.16-1.25a2,2,0,0,0,1.32-.8,2.48,2.48,0,0,0-.07-2.29,1.45,1.45,0,0,0-1.18-.6,2.74,2.74,0,0,0-1,.26l-.37.14-.09,0c0-.12,0-.26,0-.38v-.28c0-.26,0-.52,0-.78s0-.73,0-1.11c-.06-.75-.23-6.07-.39-11.22s-.31-10.38-.39-11.64l-.07-1.19c-.14-2.3-.28-4.67-.45-7,0-.19,0-.52-.09-.93-.32-3.06-.38-4.82-.17-5.24a2,2,0,0,1,1.56-.72l.22,0a11.83,11.83,0,0,1,1.44,0,43.07,43.07,0,0,1,5.34.27l.09.38a2.55,2.55,0,0,0,.6,1.36,2.45,2.45,0,0,0,1.75.8,2.15,2.15,0,0,0,1.47-.61,2.75,2.75,0,0,0,.72-3c0-.14-.06-.3-.09-.46a7,7,0,0,1,.19-3c0-.09,0-.19.07-.29.25-1,.63-2.46-.17-3.35a1.79,1.79,0,0,0-1.31-.66Z"/><path class="cls-6" d="M80.06,149.84c-.47,0-1.33,0-1.41-1.05-.07-.85.94-1.55,1.38-1.81a5.85,5.85,0,0,1,.9-.43c.54-.21.63-.24.56-1,0-.37-.11-1.05-.18-1.67s-.14-1.31-.15-1.47c0-.34-.09-1.16-.16-2s-.13-1.57-.15-1.87c-.33-5.49-.49-8.77-.46-9.75a82.51,82.51,0,0,0-.46-11.68l-.25,0a14.17,14.17,0,0,1-1.4.25l-.45,0-.35,0a3.14,3.14,0,0,1-.43,0,1.4,1.4,0,0,1-1.1-.57,1.26,1.26,0,0,1,.09-1.15,2.67,2.67,0,0,1,1.74-1.14l.37-.13a11.46,11.46,0,0,1,3.59-1,2.08,2.08,0,0,1,1,.22c.62.34.82,1.57,1.09,3.54a8.56,8.56,0,0,0,.58,2.66,12.31,12.31,0,0,0,2.06-2.06c.29-.34.55-.63.73-.81,1.63-1.6,4.21-3.61,7.24-4a5.34,5.34,0,0,1,.69,0,5.15,5.15,0,0,1,3.43,1.31,6,6,0,0,1,2.23,4.46,6.35,6.35,0,0,1-1.52,3.61c-.58.69-2.18,2-3.26,2a2.27,2.27,0,0,1-1.75-.68,2,2,0,0,1-.5-1.48c.13-1.32,1-1.35,1.6-1.37a4.56,4.56,0,0,0,.51,0,1.08,1.08,0,0,0,.91-.63,3.43,3.43,0,0,0,.31-1.69,2.12,2.12,0,0,0-2.24-2.13,4.18,4.18,0,0,0-.59,0c-1.23.19-4.06,3-5.54,4.61a17.25,17.25,0,0,0-1.87,2.9,33.55,33.55,0,0,0-1.53,5,75.15,75.15,0,0,0-.24,8.26A73.84,73.84,0,0,0,86,145a.62.62,0,0,0,.65.52,2.78,2.78,0,0,0,1.25-.42A.59.59,0,0,0,88,145a.88.88,0,0,1,.73-.44,1.29,1.29,0,0,1,.66.22,2.08,2.08,0,0,1,.72,1.29,1.68,1.68,0,0,1-.12,1.21,2.57,2.57,0,0,1-1.35.7l-.5.17a20.53,20.53,0,0,1-3.25.79c-.73.15-1.43.29-1.88.4a19.28,19.28,0,0,1-2.92.53l0-.38Z"/><path class="cls-7" d="M95.16,113.38a4.76,4.76,0,0,1,3.17,1.21,5.6,5.6,0,0,1,2.11,4.21A6,6,0,0,1,99,122.14c-.54.64-2,1.91-3,1.91h0a1.65,1.65,0,0,1-1.85-1.75c.11-1.27.91-1,1.79-1.08a1.44,1.44,0,0,0,1.17-.81,3.77,3.77,0,0,0,.36-1.92A2.48,2.48,0,0,0,94.87,116a5.13,5.13,0,0,0-.65,0c-1.59.25-5.09,4-5.76,4.73a17.43,17.43,0,0,0-1.93,3A34.14,34.14,0,0,0,85,128.86a72.28,72.28,0,0,0-.24,8.35,72.12,72.12,0,0,0,.86,7.93,1,1,0,0,0,1,.78,3.33,3.33,0,0,0,1.44-.46c.26-.15.35-.56.69-.56a.9.9,0,0,1,.46.17,2,2,0,0,1,.49,2c-.27.39-1.33.55-1.71.75-.58.3-3.78.84-5,1.15a18.5,18.5,0,0,1-2.83.52h0c-.49,0-1,0-1-.7s.79-1.21,1.2-1.46c1.13-.68,1.77-.33,1.64-1.77-.07-.78-.3-2.83-.32-3.13,0-.69-.28-3.23-.31-3.84-.12-1.87-.5-8.26-.46-9.72a84.85,84.85,0,0,0-.49-11.93.19.19,0,0,0-.19-.17h0c-.56.11-1.38.3-1.8.33s-.6.07-.77.07a2,2,0,0,1-.37,0c-.6-.09-1.17-.25-.73-1.2.29-.63,1.33-.84,1.9-1.07a11.47,11.47,0,0,1,3.46-.93,1.83,1.83,0,0,1,.84.18c1,.55.81,6.22,1.79,6.22h.08c.82-.25,2.39-2.31,3-2.94a13,13,0,0,1,7-3.93,4.49,4.49,0,0,1,.64,0m0-.75a4.73,4.73,0,0,0-.75.05A14,14,0,0,0,87,116.81c-.2.2-.45.49-.75.83a18.58,18.58,0,0,1-1.64,1.71,20.61,20.61,0,0,1-.35-2.11c-.28-2.08-.49-3.38-1.28-3.82a2.56,2.56,0,0,0-1.2-.27,11.53,11.53,0,0,0-3.68,1l0,0-.35.12a3,3,0,0,0-2,1.34,1.66,1.66,0,0,0-.08,1.48,1.74,1.74,0,0,0,1.37.77,3,3,0,0,0,.49,0l.39,0,.44,0a10.56,10.56,0,0,0,1.29-.22A84.26,84.26,0,0,1,80,128.82c0,1,.12,4.29.46,9.78,0,.31.08,1.09.15,1.89s.14,1.61.16,2c0,.15.08.78.15,1.47s.14,1.3.17,1.67a1.39,1.39,0,0,1,0,.5l-.32.11a7.48,7.48,0,0,0-1,.45c-.5.3-1.65,1.11-1.57,2.17a1.53,1.53,0,0,0,1.78,1.39,19.21,19.21,0,0,0,3-.54l1.86-.39a19.1,19.1,0,0,0,3.35-.82,3.61,3.61,0,0,1,.44-.15,2.76,2.76,0,0,0,1.55-.85,2,2,0,0,0,.18-1.5,2.53,2.53,0,0,0-.9-1.53,1.58,1.58,0,0,0-.85-.28,1.28,1.28,0,0,0-1,.59l-.06.08a2.52,2.52,0,0,1-1,.35c-.15,0-.22,0-.29-.25a74.18,74.18,0,0,1-.84-7.75,73.56,73.56,0,0,1,.24-8.17,34,34,0,0,1,1.5-4.89A16.39,16.39,0,0,1,89,121.3c1.93-2.12,4.38-4.34,5.31-4.49a5.29,5.29,0,0,1,.54,0,1.76,1.76,0,0,1,1.87,1.8,3.17,3.17,0,0,1-.27,1.47.72.72,0,0,1-.63.44,4.23,4.23,0,0,1-.48,0,1.7,1.7,0,0,0-2,1.71A2.41,2.41,0,0,0,94,124a2.62,2.62,0,0,0,2,.81c1.44,0,3.21-1.75,3.57-2.18a6.64,6.64,0,0,0,1.61-3.88A6.29,6.29,0,0,0,98.83,114a5.51,5.51,0,0,0-3.67-1.4Z"/><path class="cls-6" d="M128.26,146.4a13.28,13.28,0,0,1-3.47-.41,15.07,15.07,0,0,1-4-2.23,8.1,8.1,0,0,1-1.93-2.17,18.36,18.36,0,0,1-1.63-7.34A28,28,0,0,1,118.6,127a15.41,15.41,0,0,1,2.59-5,11.93,11.93,0,0,1,3.3-2.65,7.8,7.8,0,0,1,3.38-.94,5.37,5.37,0,0,1,2.13.43,8.11,8.11,0,0,1,1.26.68,3.93,3.93,0,0,1,.63.54,2.92,2.92,0,0,0,.59.49.78.78,0,0,0,.31.09c.17,0,.28-.22.46-.74s.51-1.42,1.42-1.52h.24a1.41,1.41,0,0,1,1.1.46c.66.74.5,2.17.41,3s-.42,3.71-.51,4.4q0,.27-.06.6c-.12,1.14-.28,2.7-1.12,3.49a2,2,0,0,1-1.3.52,1.18,1.18,0,0,1-.43-.07,1.82,1.82,0,0,1-1.11-1.79l.13-.64a9.25,9.25,0,0,0,.3-3.29c-.28-1.73-2.69-3.35-4.37-3.35h-.12a4,4,0,0,0-2,.73,13.63,13.63,0,0,0-2.76,3.72c-1.07,2.68-1.19,6.29-.35,11,.43,2.38,2,5.16,4.51,6a3.55,3.55,0,0,0,1.11.15,6.35,6.35,0,0,0,2.32-.45,5.86,5.86,0,0,0,1.94-1.18,2,2,0,0,1,.34-.28l.17-.14a4,4,0,0,1,1.89-.72,1,1,0,0,1,.77.3,1.27,1.27,0,0,1,.28,1c-.1,1.67-3.3,3.3-3.34,3.32a15,15,0,0,1-3,1.1A9.31,9.31,0,0,1,128.26,146.4Z"/><path class="cls-7" d="M134.91,118.76c1.53,0,1.24,2.16,1.12,3.16-.07.7-.4,3.62-.49,4.3-.14,1.06-.18,3-1.07,3.87a1.65,1.65,0,0,1-1,.42.94.94,0,0,1-.3,0,1.46,1.46,0,0,1-.87-1.37,11.93,11.93,0,0,0,.43-4.06c-.3-1.89-2.89-3.66-4.74-3.66h-.14a4.25,4.25,0,0,0-2.18.79,13.91,13.91,0,0,0-2.9,3.89c-1.34,3.36-1,7.67-.37,11.25.49,2.73,2.24,5.45,4.77,6.27a4,4,0,0,0,1.22.16,6.68,6.68,0,0,0,2.46-.47,6.5,6.5,0,0,0,2.07-1.27c.12-.13.34-.27.48-.39A3.74,3.74,0,0,1,135,141c.41,0,.72.22.68.9-.07,1.12-2.15,2.52-3.13,3a15.39,15.39,0,0,1-2.88,1.07,9,9,0,0,1-1.42.1,12.76,12.76,0,0,1-3.33-.39,15.17,15.17,0,0,1-3.92-2.16,8,8,0,0,1-1.85-2.07,18,18,0,0,1-1.58-7.14,27.63,27.63,0,0,1,1.38-7.12,14.59,14.59,0,0,1,2.52-4.89,11.57,11.57,0,0,1,3.19-2.56,7.43,7.43,0,0,1,3.2-.89,4.87,4.87,0,0,1,2,.39,9.23,9.23,0,0,1,1.21.66c.4.25.84.86,1.25,1a1.2,1.2,0,0,0,.47.12c1,0,.64-2.12,1.92-2.25l.2,0m0-.75-.28,0c-1.14.12-1.51,1.15-1.73,1.76a3.53,3.53,0,0,1-.19.47l-.08,0a3.67,3.67,0,0,1-.47-.41,4,4,0,0,0-.7-.6,9.77,9.77,0,0,0-1.31-.71,5.6,5.6,0,0,0-2.24-.45h0a8.17,8.17,0,0,0-3.6,1,12.25,12.25,0,0,0-3.41,2.74,15.55,15.55,0,0,0-2.65,5.13,28.68,28.68,0,0,0-1.42,7.31,18.58,18.58,0,0,0,1.68,7.55,8.26,8.26,0,0,0,2,2.27,15.45,15.45,0,0,0,4.14,2.29,12.94,12.94,0,0,0,3.61.45,11.43,11.43,0,0,0,1.53-.1,15.78,15.78,0,0,0,3.1-1.15s3.43-1.72,3.54-3.62a1.62,1.62,0,0,0-.38-1.28,1.37,1.37,0,0,0-1-.42,4.3,4.3,0,0,0-2.14.82l-.15.12a2.88,2.88,0,0,0-.39.32,5.28,5.28,0,0,1-1.81,1.1,5.94,5.94,0,0,1-2.17.41,3.43,3.43,0,0,1-1-.12c-2.38-.78-3.86-3.42-4.26-5.69-.82-4.68-.72-8.23.33-10.84a13.68,13.68,0,0,1,2.62-3.55,3.56,3.56,0,0,1,1.8-.66h.1c1.47,0,3.76,1.52,4,3a9.07,9.07,0,0,1-.29,3.16c0,.21-.09.43-.13.63a2.15,2.15,0,0,0,1.34,2.22,1.47,1.47,0,0,0,.56.1,2.39,2.39,0,0,0,1.56-.63c.94-.88,1.11-2.52,1.23-3.72,0-.22,0-.42.06-.59.1-.71.43-3.72.5-4.31v-.1c.1-.91.27-2.44-.5-3.31a1.82,1.82,0,0,0-1.38-.59Z"/><path class="cls-6" d="M169.25,154.93a11.21,11.21,0,0,1-2.75-.39,7.46,7.46,0,0,1-3.74-2.93c-.15-.19-.51-.72-.83-1.21s-.47-.69-.57-.83-2.79-5.49-3.2-6.42c-.66-1.49-3.56-7.25-3.59-7.31-.16-.31-.48-1-.83-1.87-.51-1.17-1.09-2.49-1.4-3.06l-.21-.45c-.18-.38-.47-1-.73-1.12a.45.45,0,0,0-.2,0,1.72,1.72,0,0,0-.87.42l-.23.15a7.37,7.37,0,0,0-1.07.85,2.63,2.63,0,0,0-.57,1,4.32,4.32,0,0,0-.19,1.46c0,.59,0,2.39.09,4.19,0,1.58.08,3.15.09,3.9,0,.3,0,.61,0,.92s0,.68,0,1a9.39,9.39,0,0,0,.36,2.53c.23.36.65.39,1.32.4s1.43,0,1.8.74a1,1,0,0,1,0,1c-.46.88-2.21,1.21-3.68,1.4l-.15,0a29.76,29.76,0,0,0-4.43.93,7.65,7.65,0,0,1-1.94.38,1,1,0,0,1-.72-.21,1.31,1.31,0,0,1-.54-1.2c.14-.68,1-1,1.83-1.26a4.06,4.06,0,0,0,.71-.29,3.81,3.81,0,0,0,1.45-1.34,3.76,3.76,0,0,0,.28-2.55c0-4.6-.18-9.2-.35-13.66l-.08-2.22c0-1-.07-2.1-.11-3.15,0-.11,0-.45,0-1-.14-9.77-.37-12.8-.56-13.51a9.19,9.19,0,0,1-2.72-.4c-.74-.36-.86-.79-.83-1.09.08-.71,1.1-1.2,1.76-1.36,1.5-.37,3-.69,4.55-1l.17,0a7.31,7.31,0,0,1,1.37-.17c.77,0,1.25.25,1.45.73.35.89-.64,1.66-1.24,2.12l-.19.15a1.31,1.31,0,0,0-.33.34,1,1,0,0,0-.06.39c.06.85.05,2.63,0,4.51s0,3.85.05,4.71c.11,1.36.11,3,.11,4.53v1.17c0,.52.08,1.12.14,1.7,0,.24.06.47.08.69,0,.4.15.87.43.87.5,0,1.38-.79,1.85-1.22.16-.14.3-.27.41-.35s.43-.35.69-.58c.66-.54,1.47-1.22,2-1.53a39.43,39.43,0,0,0,5.09-4.21l.22-.25c.27-.31.58-.66.53-1,0-.13-.14-.23-.34-.38a1,1,0,0,1-.45-1.3c.29-.61,1.15-.68,1.76-.68.28,0,.55,0,.78,0l.37,0h.36l1,0c2.14,0,3.32.3,3.72,1a1.09,1.09,0,0,1,0,1.11c-.4.8-1.35.87-2,.92h-.17a2.43,2.43,0,0,0-2,.84c-.48.46-1.92,1.66-3.45,2.93-1.31,1.08-2.66,2.2-3.2,2.7s-.78.75-.72,1.07a2.38,2.38,0,0,0,.47.84l.11.16c.38.53,3.26,5.33,4.33,7.41.88,1.7,2.4,5.1,3.63,7.84.86,1.92,1.6,3.57,1.84,4l.14.27c.77,1.44,1.93,3.61,3.42,4.09a1.72,1.72,0,0,0,.47.07,3.31,3.31,0,0,0,2.43-1.42,3.59,3.59,0,0,0,.58-1.93c-.05-1-.47-1.25-1.13-1.25l-.46,0c-.31,0-.69.06-1.07.06a2,2,0,0,1-1.74-.61,1.36,1.36,0,0,1,0-1.3.79.79,0,0,1,.15-.25,4.22,4.22,0,0,1,2.16-1.21,3.85,3.85,0,0,1,.76-.07,3.74,3.74,0,0,1,3.83,3.2,8.61,8.61,0,0,1,.23,3,5.26,5.26,0,0,1-2.84,4A5,5,0,0,1,169.25,154.93Z"/><path class="cls-7" d="M147.9,106.61c.5,0,.95.12,1.1.5.28.72-.88,1.48-1.31,1.84a1.41,1.41,0,0,0-.44.47,1.09,1.09,0,0,0-.09.58c.12,1.71,0,7.51.09,9.22s.1,3.77.11,5.67c0,.76.14,1.68.22,2.43s.4,1.21.8,1.21c.82,0,2-1.28,2.49-1.66.65-.51,2-1.66,2.63-2.09a39.46,39.46,0,0,0,5.17-4.28c.35-.43.92-.93.83-1.51s-1.18-.71-.82-1.46c.18-.38.81-.46,1.42-.46s.9,0,1.15,0h0l1.34,0c1.66,0,4,.18,3.38,1.51-.33.68-1.25.67-1.85.73a2.73,2.73,0,0,0-2.25.94c-.89.86-5.49,4.57-6.64,5.62-.65.6-.94.88-.84,1.42a3.14,3.14,0,0,0,.65,1.15c.34.48,3.23,5.28,4.3,7.36,1.49,2.9,4.88,10.76,5.47,11.86.81,1.51,2,4,3.77,4.54a2,2,0,0,0,.59.09,3.68,3.68,0,0,0,2.74-1.58,4.06,4.06,0,0,0,.65-2.16c-.06-1.14-.56-1.61-1.51-1.61h0c-.28,0-.9.1-1.51.1-.95,0-1.89-.23-1.44-1.41a.57.57,0,0,1,.08-.13,3.82,3.82,0,0,1,2-1.09,3.44,3.44,0,0,1,.68-.06,3.35,3.35,0,0,1,3.46,2.9,8.5,8.5,0,0,1,.23,2.84,4.86,4.86,0,0,1-2.67,3.77,4.53,4.53,0,0,1-2.58.67,10.36,10.36,0,0,1-2.65-.38,7.08,7.08,0,0,1-3.54-2.79c-.27-.34-1.16-1.7-1.4-2S159,144,158.5,143c-.65-1.47-3.4-6.94-3.59-7.32-.38-.75-1.7-4-2.24-5-.26-.48-.61-1.53-1.13-1.74a.86.86,0,0,0-.34-.07,2.64,2.64,0,0,0-1.3.63,7.67,7.67,0,0,0-1.12.89,2.88,2.88,0,0,0-.67,1.16,4.53,4.53,0,0,0-.22,1.59c0,1.1.17,6.48.19,8.1,0,.63-.09,1.32-.06,1.91a10.1,10.1,0,0,0,.41,2.71c.7,1.1,2.56.07,3.11,1.12.75,1.44-2.8,1.8-3.52,1.9a28.62,28.62,0,0,0-4.49.95,7.86,7.86,0,0,1-1.83.36.7.7,0,0,1-.46-.12c-1.49-1.37,1.19-1.7,1.94-2.14a4.31,4.31,0,0,0,1.58-1.49,4.09,4.09,0,0,0,.32-2.79c0-5.29-.23-10.57-.42-15.84,0-1-.08-2.09-.11-3.14,0-.82-.13-14.83-.73-14.84a9.39,9.39,0,0,1-2.78-.37c-1.44-.7,0-1.54.86-1.75,1.5-.36,3-.68,4.52-1a8.56,8.56,0,0,1,1.48-.2m0-.75a7.72,7.72,0,0,0-1.44.18l-.17,0c-1.53.27-3.06.6-4.57,1-.71.17-1.93.72-2,1.69,0,.34,0,1,1,1.47a8.45,8.45,0,0,0,2.58.43c.15,1,.37,4,.49,13.13,0,.53,0,.88,0,1,0,1.05.07,2.1.11,3.15l.08,2.23c.17,4.45.34,9,.34,13.58v.13a3.44,3.44,0,0,1-.23,2.29,3.49,3.49,0,0,1-1.32,1.21,3.71,3.71,0,0,1-.64.25c-.84.29-1.89.65-2.08,1.55a1.65,1.65,0,0,0,.66,1.55,1.41,1.41,0,0,0,1,.31,8.25,8.25,0,0,0,2.05-.4,28.94,28.94,0,0,1,4.37-.92l.15,0c1.66-.21,3.43-.57,4-1.6a1.45,1.45,0,0,0,0-1.37,2.13,2.13,0,0,0-2.12-.94c-.62,0-.9-.05-1-.23a11.62,11.62,0,0,1-.29-2.35,7.6,7.6,0,0,1,0-.94c0-.31,0-.63,0-.95,0-.75-.05-2.31-.09-3.88-.05-1.78-.1-3.62-.1-4.2a4,4,0,0,1,.17-1.34,2.36,2.36,0,0,1,.47-.86,7.45,7.45,0,0,1,1-.81l.23-.16a1.85,1.85,0,0,1,.66-.35l.06,0a3.88,3.88,0,0,1,.53.93c.08.18.15.34.22.47.3.56.9,1.93,1.39,3,.36.84.67,1.56.84,1.88,0,.06,2.92,5.8,3.58,7.29.31.7,3,6.16,3.24,6.5.1.13.32.46.55.81.42.62.7,1,.86,1.24a7.72,7.72,0,0,0,3.94,3.05,11.45,11.45,0,0,0,2.84.4,5.37,5.37,0,0,0,3-.79,5.6,5.6,0,0,0,3-4.25,8.89,8.89,0,0,0-.22-3.14,4.12,4.12,0,0,0-4.2-3.5,4.2,4.2,0,0,0-.84.08,4.61,4.61,0,0,0-2.35,1.31,1.2,1.2,0,0,0-.23.37,1.72,1.72,0,0,0,.09,1.66,2.48,2.48,0,0,0,2.05.77c.4,0,.79,0,1.1-.07l.42,0h0c.47,0,.73,0,.77.9a3.33,3.33,0,0,1-.52,1.7,3,3,0,0,1-2.12,1.25,1.36,1.36,0,0,1-.36-.05c-1.34-.43-2.46-2.52-3.19-3.9l-.15-.28c-.23-.44-1-2.09-1.83-4-1.23-2.73-2.76-6.14-3.64-7.85-1.07-2.09-4-6.92-4.35-7.46l-.12-.16a2.07,2.07,0,0,1-.4-.68c0-.12,0-.18.61-.73s1.87-1.61,3.17-2.68c1.54-1.28,3-2.49,3.48-3,.65-.62.75-.63,1.8-.73h.18a2.51,2.51,0,0,0,2.28-1.13,1.46,1.46,0,0,0,0-1.47c-.48-.77-1.73-1.12-4-1.12l-1,0h-.7c-.23,0-.51,0-.8,0-.46,0-1.67,0-2.1.89a1.33,1.33,0,0,0,.57,1.76,2.32,2.32,0,0,1,.21.18,2.59,2.59,0,0,1-.46.61l-.23.27a38.86,38.86,0,0,1-5,4.12,24.69,24.69,0,0,0-2,1.56l-.7.58c-.11.08-.25.21-.42.36a5.52,5.52,0,0,1-1.54,1.12,1.68,1.68,0,0,1-.12-.53c0-.22,0-.46-.07-.7a14.3,14.3,0,0,1-.14-1.66v-1.16c0-1.57,0-3.19-.11-4.56-.07-.84-.06-2.79-.05-4.68s0-3.67,0-4.54a.37.37,0,0,1,0-.2,1.2,1.2,0,0,1,.23-.21l.18-.15c.63-.49,1.82-1.4,1.36-2.55a1.72,1.72,0,0,0-1.8-1Z"/><path class="cls-8" d="M140.34,85.1c-1.22,0-1.48-.73-1.53-1.16a1.12,1.12,0,0,1,.88-1.25,1.29,1.29,0,0,0,.45-.25c.35-.37.35-.4.29-.92,0-.11,0-.25-.05-.4,0-.57-.11-1.13-.17-1.7l0-.25c0-.12,0-.28,0-.46,0-.4,0-1.44-.33-1.44s-.35.49-.45.72a4.66,4.66,0,0,1-.28.59,10.9,10.9,0,0,1-3.22,3.4,5.87,5.87,0,0,1-2.29.85h0a6.91,6.91,0,0,1-4.2-1.52,7.28,7.28,0,0,1-2.26-4.85,16.82,16.82,0,0,1,1.57-6.86c1-2.46,3.72-5.29,6.43-5.77l.38-.07a11.05,11.05,0,0,1,2-.25l.49,0c.27,0,.62.05,1,.05.65,0,.78-.11.78-.12a4.79,4.79,0,0,0,.3-1.81c0-.17,0-.32,0-.45.13-1.71.36-5.34.56-8.63.24-3.87.39-6.26.43-6.58.1-.74.09-.74-.44-.86a.72.72,0,0,0-.22,0,7.3,7.3,0,0,0-1.29.19,8.87,8.87,0,0,1-1.63.23c-1.19,0-1.4-.74-1.41-1.17a1.11,1.11,0,0,1,.28-.86,1.82,1.82,0,0,1,1.34-.4l.79,0h.31c.33,0,.65-.06,1-.08l.66,0a5.3,5.3,0,0,0,.81-.19,6.09,6.09,0,0,1,1.48-.27,1.44,1.44,0,0,1,.58.1c1.12.45,1,2.2.85,3.61,0,.4-.07.77-.06,1,.07,2-.26,13.54-.38,15.19s-.08,7.12,0,9.7c0,.29,0,.87,0,1.57,0,1.78.12,4.46.1,5.41v.35c-.05,1.53.06,2.36.34,2.46,0,0,0,0,.06,0h.06a5,5,0,0,0,.65,0c.24,0,.49,0,.7,0a1,1,0,0,1,1.09,1.41c-.29,1.19-2.46,1.35-3.76,1.45l-.48,0-.58.11A7.71,7.71,0,0,1,140.34,85.1Zm-3.75-19.34a3,3,0,0,0-1.74.47,5.37,5.37,0,0,0-2.47,3.62l-.13.82a26.39,26.39,0,0,0-.41,4.76l0,.49c0,1.31.09,2.94.86,3.83a.91.91,0,0,0,.74.32c1.28,0,3.18-1.69,3.92-2.86a22.57,22.57,0,0,0,1.31-2.93l.17-.43a22.68,22.68,0,0,0,.78-4.09,1.72,1.72,0,0,1,0-.64,2.13,2.13,0,0,0,0-.42,4.86,4.86,0,0,0-.5-2,5.06,5.06,0,0,0-2.58-1v-.38Z"/><path class="cls-9" d="M142.74,42.91a1.16,1.16,0,0,1,.44.07c1.15.47.52,3.2.56,4.32.07,2-.27,13.51-.39,15.14-.15,2.08,0,8.53,0,9.73s.16,5.66.14,7c0,.82-.19,2.89.58,3.16l.24,0c.43,0,.94-.1,1.35-.1s.93.17.73,1c-.27,1.1-3.12,1.11-3.92,1.21a16,16,0,0,1-2.11.33c-.59,0-1.09-.18-1.15-.82-.09-.9.77-.72,1.22-1.2s.43-.73.35-1.62c-.06-.65-.13-1.3-.2-2s.09-2.23-.73-2.23l-.15,0c-.38.08-.62,1-.9,1.47a10.62,10.62,0,0,1-3.11,3.28,5.44,5.44,0,0,1-2.09.78h-.05A6.66,6.66,0,0,1,129.64,81a6.91,6.91,0,0,1-2.13-4.58,16.67,16.67,0,0,1,1.54-6.72c1-2.41,3.61-5.09,6.15-5.54a12.4,12.4,0,0,1,2.35-.31h0c.25,0,.85.07,1.4.07s.95-.05,1.09-.28a6.32,6.32,0,0,0,.39-2.44c.25-3.43.89-14.55,1-15.18.12-.87.05-1.11-.72-1.29a1.48,1.48,0,0,0-.31,0c-.78,0-2,.42-2.91.42-.59,0-1-.18-1-.81s.58-.86,1.25-.86l.79,0,.35,0c.55-.06,1.09-.08,1.63-.12a21.35,21.35,0,0,1,2.26-.46m-9.28,37.53c1.43,0,3.43-1.75,4.24-3A30.18,30.18,0,0,0,139.21,74a23.49,23.49,0,0,0,.8-4.24c-.07-.39.09-.73.05-1.1a5.7,5.7,0,0,0-.56-2.12,5.14,5.14,0,0,0-2.89-1.16h0a3.31,3.31,0,0,0-1.92.52A5.76,5.76,0,0,0,132,69.79a31.26,31.26,0,0,0-.53,5.65c.05,1.39,0,3.44,1,4.56a1.29,1.29,0,0,0,1,.44m9.28-38.28h0a6.66,6.66,0,0,0-1.58.29,4.35,4.35,0,0,1-.74.17l-.65.05-1,.07-.27,0h-.79a2.13,2.13,0,0,0-1.61.51,1.49,1.49,0,0,0-.39,1.13,1.58,1.58,0,0,0,1.8,1.53,9.6,9.6,0,0,0,1.7-.23,6.45,6.45,0,0,1,1.21-.19h.14l.18,0c0,.08,0,.2,0,.4s-.2,2.72-.44,6.58c-.2,3.25-.42,6.94-.55,8.65,0,.14,0,.29,0,.46a6.24,6.24,0,0,1-.19,1.54,3.8,3.8,0,0,1-.51,0c-.31,0-.65,0-.92,0l-.47,0h0a11.72,11.72,0,0,0-2.11.25l-.37.07c-2.95.52-5.66,3.48-6.72,6a17.55,17.55,0,0,0-1.59,7,7.65,7.65,0,0,0,2.38,5.13,7.32,7.32,0,0,0,4.39,1.61h.06a6.23,6.23,0,0,0,2.5-.9,11.35,11.35,0,0,0,3.33-3.53,5.27,5.27,0,0,0,.31-.63l0-.06c0,.23,0,.48,0,.63s0,.38,0,.5l0,.19c.06.58.13,1.17.18,1.75,0,.16,0,.3,0,.42a1.73,1.73,0,0,1,0,.35,1.19,1.19,0,0,1-.21.26,1.49,1.49,0,0,1-.32.17A1.49,1.49,0,0,0,138.44,84c.05.45.32,1.49,1.9,1.49a8.31,8.31,0,0,0,1.65-.23l.55-.11.46,0c1.49-.11,3.73-.27,4.1-1.72a1.37,1.37,0,0,0-1.46-1.89c-.24,0-.49,0-.74,0l-.57,0a6.37,6.37,0,0,1-.12-2.07c0-.13,0-.25,0-.35,0-1-.05-3.55-.1-5.43,0-.7,0-1.27,0-1.57-.05-2.57-.11-7.9,0-9.67s.46-13.16.39-15.22c0-.23,0-.6,0-1,.13-1.45.3-3.43-1.07-4a1.86,1.86,0,0,0-.73-.13Zm-9.28,37.53a.53.53,0,0,1-.45-.18c-.69-.79-.74-2.42-.78-3.6,0-.17,0-.34,0-.5a24.8,24.8,0,0,1,.4-4.68c0-.28.09-.56.13-.83A5,5,0,0,1,135,66.55a2.7,2.7,0,0,1,1.56-.42h0a4.94,4.94,0,0,1,2.29.84,4.2,4.2,0,0,1,.41,1.7v.07a1.26,1.26,0,0,1,0,.32,2.62,2.62,0,0,0,0,.76,26.77,26.77,0,0,1-.74,3.89,4.47,4.47,0,0,0-.18.44A21.65,21.65,0,0,1,137.06,77c-.77,1.21-2.58,2.68-3.6,2.68Z"/><path class="cls-6" d="M103.1,145.14a2.63,2.63,0,0,1-1.89-.77,1.31,1.31,0,0,1-.32-1.08c.17-1.12,1.28-1.39,2.09-1.59.16,0,.31-.07.45-.12l.66-.17c.58-.14,1.46-.36,1.63-.65a4.25,4.25,0,0,0,.13-1.32c-.07-1.33.31-6.74.62-11.08.18-2.57.33-4.78.33-5.25a8.66,8.66,0,0,1,.07-.89c.11-.93.1-1.27-.46-1.48a1.63,1.63,0,0,0-.52,0H105c-.91,0-1.81-.08-2.17-.66a1.31,1.31,0,0,1,.06-1.32c.38-.77,1.82-1.1,4.81-1.1h.64c2.53,0,2.73.83,3,2.87l0,.14a46.78,46.78,0,0,1,.19,5.3v.31c0,.92-.08,1.84-.16,2.73s-.14,1.63-.16,2.46c0,.32-.08,1-.18,1.78-.25,2-.78,6.29-.09,7.12a.75.75,0,0,0,.62.34,2.51,2.51,0,0,0,.71-.15,3.3,3.3,0,0,1,1-.2,1.7,1.7,0,0,1,.51.07,1.92,1.92,0,0,1,1.53,2.3c-.17,1.22-1.24,1.26-1.89,1.28a3.59,3.59,0,0,0-.47,0l-.17,0,0,0c-.48,0-1.89.2-3,.35-.75.09-1.42.18-1.76.21l-.85.12c-1.11.15-3,.42-3.87.47ZM107.71,107a3.67,3.67,0,0,1-1.42-.32h-.14a1.82,1.82,0,0,1-1.67-.89,3.42,3.42,0,0,1,.28-3.23,3.25,3.25,0,0,1,2.75-1.77,3,3,0,0,1,1,.18,2.6,2.6,0,0,1,1.37,1.46,3.71,3.71,0,0,1,.27,2.68A2.56,2.56,0,0,1,107.71,107Z"/><path class="cls-7" d="M107.51,101.15a2.51,2.51,0,0,1,.87.16c1.14.4,1.83,2.65,1.42,3.65a2.22,2.22,0,0,1-2.09,1.65,3.37,3.37,0,0,1-1.35-.32h-.21c-2.87,0-1.5-5.15,1.36-5.15m.85,16.85c2.35,0,2.37.65,2.61,2.67a44.59,44.59,0,0,1,.19,5.56c0,1.74-.29,3.45-.32,5.19,0,1.23-1.24,7.88-.19,9.15a1.14,1.14,0,0,0,.91.48c.55,0,1.12-.36,1.72-.36a1.44,1.44,0,0,1,.4.06c1.62.5,1.31,1.65,1.26,1.94-.15,1.1-1.32.83-2,.94h-.1c-.62,0-4,.47-4.9.56-.35,0-3.47.51-4.7.59h-.11c-.82,0-2-.51-1.84-1.42.16-1.06,1.45-1.16,2.28-1.41s2.18-.43,2.51-1a4.37,4.37,0,0,0,.17-1.52c-.1-2.13,1-15.05,1-16.33,0-1.12.55-2.27-.64-2.71a2.15,2.15,0,0,0-.65-.06H105c-1.16,0-2.41-.14-1.77-1.44.43-.88,3.26-.9,4.5-.9h.61m-.85-17.6h0c-2.12,0-3.7,2.21-3.7,4.18a2.26,2.26,0,0,0,2.34,2.47h.07a4,4,0,0,0,1.49.31,2.94,2.94,0,0,0,2.79-2.12,4.15,4.15,0,0,0-.28-3,3,3,0,0,0-1.59-1.67,3.39,3.39,0,0,0-1.12-.2Zm.85,16.85h-.61c-2.72,0-4.64.22-5.17,1.31a1.65,1.65,0,0,0,0,1.68c.46.74,1.47.85,2.49.85h.87a1.77,1.77,0,0,1,.41,0c.24.09.31.12.2,1.07a6.91,6.91,0,0,0-.07.94c0,.45-.16,2.77-.34,5.22-.3,4.35-.68,9.77-.62,11.13a4.2,4.2,0,0,1-.09,1.14,5.86,5.86,0,0,1-1.38.45l-.67.17-.44.12c-.81.19-2.17.52-2.37,1.9a1.69,1.69,0,0,0,.41,1.37,3,3,0,0,0,2.17.91h.15c.92-.06,2.79-.32,3.91-.48l.83-.12c.34,0,1-.12,1.77-.21,1-.13,2.31-.29,2.86-.33l0,0,.35,0c.13,0,.27,0,.43,0,.65,0,2-.06,2.24-1.54A2.32,2.32,0,0,0,113.9,140a2.16,2.16,0,0,0-.62-.09,3.77,3.77,0,0,0-1.12.22,2.41,2.41,0,0,1-.6.14c-.07,0-.16,0-.33-.2-.59-.72,0-5.33.17-6.84.11-.86.18-1.48.19-1.83,0-.81.08-1.63.15-2.43s.16-1.82.17-2.76v-.3a43.58,43.58,0,0,0-.19-5.36l0-.13c-.24-2.1-.51-3.2-3.34-3.2Z"/></svg>