<?xml version="1.0" encoding="iso-8859-1"?>
<!-- Generator: Adobe Illustrator 17.1.0, SVG Export Plug-In . SVG Version: 6.00 Build 0)  -->
<!DOCTYPE svg PUBLIC "-//W3C//DTD SVG 1.1//EN" "http://www.w3.org/Graphics/SVG/1.1/DTD/svg11.dtd">
<svg xmlns="http://www.w3.org/2000/svg" xmlns:xlink="http://www.w3.org/1999/xlink" version="1.1" id="Capa_1" x="0px" y="0px" viewBox="0 0 512 512" style="enable-background:new 0 0 512 512;" xml:space="preserve" width="512px" height="512px">
<g>
	<path d="M496,125.581v-17.379c-0.011-30.551-24.625-58.379-54.934-62.041c-122.8-13.822-247.33-13.823-370.197,0.008   C40.625,49.824,16.011,77.652,16,108.205v17.376c-9.311,3.302-16,12.195-16,22.624v32c0,13.234,10.766,24,24,24h112   c13.234,0,24-10.766,24-24v-32c0-13.234-10.766-24-24-24v-14.994c39.721-6.26,80.078-9.433,120.012-9.433   c40.015,0,80.375,3.172,120.006,9.429c-0.031,5.25-0.073,10.748-0.116,15C362.713,124.26,352,135.004,352,148.205v32   c0,13.234,10.766,24,24,24h112c13.234,0,24-10.766,24-24v-32C512,137.776,505.311,128.883,496,125.581z M496,180.205   c0,4.411-3.589,8-8,8H376c-4.411,0-8-3.589-8-8v-32c0-4.411,3.589-8,8-8h7.71c0.011,0,0.022,0.001,0.033,0.001   c0.011,0,0.021-0.001,0.032-0.001h56.224c4.418,0,8-3.582,8-8s-3.582-8-8-8h-48.096c0.013-1.271,0.025-2.605,0.037-3.942   c0.051-6.008,0.085-12.013,0.085-12.013c0-0.053,0-0.107-0.001-0.16c-0.07-4.904-4.274-13.067-10.449-14.195   c-0.053-0.01-0.107-0.019-0.16-0.028c-41.386-6.694-83.577-10.089-125.402-10.089c-41.828,0-84.111,3.41-125.674,10.134   c-0.062,0.01-0.124,0.021-0.186,0.032c-6.453,1.2-10.091,9.987-10.152,14.165c0,0.039-0.001,0.077-0.001,0.116v15.98h-8.001   c-4.418,0-8,3.582-8,8s3.582,8,8,8H136c4.411,0,8,3.589,8,8v32c0,4.411-3.589,8-8,8H24c-4.411,0-8-3.589-8-8v-32   c0-4.411,3.589-8,8-8h56.004c4.418,0,8-3.582,8-8s-3.582-8-8-8H32v-15.997c0.008-22.347,18.687-43.483,40.724-46.147   c121.614-13.688,244.94-13.688,366.487-0.008c22.102,2.671,40.781,23.807,40.789,46.152v16h-8.002c-4.418,0-8,3.582-8,8   s3.582,8,8,8H488c4.411,0,8,3.589,8,8V180.205z" fill="#3e3e3e"/>
	<path d="M436.487,256.032c-10.662-12.6-26.244-19.827-42.75-19.827H368c-26.467,0-48-21.533-48-48v-8c0-13.234-10.766-24-24-24h-80   c-13.234,0-24,10.766-24,24v8c0,26.467-21.533,48-48,48h-25.738c-16.506,0-32.087,7.227-42.75,19.827L13.25,329.615   C4.706,339.713,0,352.559,0,365.788v54.417c0,30.878,25.122,56,56,56h400c30.878,0,56-25.122,56-56v-54.417   c0-13.228-4.706-26.075-13.25-36.173L436.487,256.032z M496,420.205c0,22.056-17.944,40-40,40H56c-22.056,0-40-17.944-40-40   v-54.417c0-9.449,3.361-18.625,9.464-25.838l62.262-73.583c7.616-9,18.746-14.163,30.536-14.163H144c35.29,0,64-28.71,64-64v-8   c0-4.411,3.589-8,8-8h80c4.411,0,8,3.589,8,8v8c0,35.29,28.71,64,64,64h25.738c11.79,0,22.919,5.162,30.536,14.162l62.262,73.583   c6.103,7.213,9.464,16.389,9.464,25.837V420.205z" fill="#3e3e3e"/>
	<path d="M256,236.205c-52.935,0-96,43.065-96,96s43.065,96,96,96s96-43.065,96-96S308.935,236.205,256,236.205z M256,412.205   c-44.112,0-80-35.888-80-80s35.888-80,80-80s80,35.888,80,80S300.112,412.205,256,412.205z" fill="#3e3e3e"/>
	<path d="M303.182,300.984c-3.991,1.895-5.69,6.667-3.795,10.658c3.061,6.446,4.613,13.364,4.613,20.563c0,26.467-21.533,48-48,48   s-48-21.533-48-48s21.533-48,48-48c9.874,0,19.355,2.973,27.42,8.597c3.623,2.526,8.61,1.638,11.138-1.986   c2.527-3.624,1.638-8.611-1.986-11.138c-10.762-7.505-23.409-11.473-36.572-11.473c-35.29,0-64,28.71-64,64s28.71,64,64,64   s64-28.71,64-64c0-9.592-2.072-18.819-6.16-27.426C311.945,300.787,307.174,299.089,303.182,300.984z" fill="#3e3e3e"/>
</g>
<g>
</g>
<g>
</g>
<g>
</g>
<g>
</g>
<g>
</g>
<g>
</g>
<g>
</g>
<g>
</g>
<g>
</g>
<g>
</g>
<g>
</g>
<g>
</g>
<g>
</g>
<g>
</g>
<g>
</g>
</svg>
