<?xml version="1.0" encoding="iso-8859-1"?>
<!-- Generator: Adobe Illustrator 16.0.0, SVG Export Plug-In . SVG Version: 6.00 Build 0)  -->
<!DOCTYPE svg PUBLIC "-//W3C//DTD SVG 1.1//EN" "http://www.w3.org/Graphics/SVG/1.1/DTD/svg11.dtd">
<svg xmlns="http://www.w3.org/2000/svg" xmlns:xlink="http://www.w3.org/1999/xlink" version="1.1" id="Capa_1" x="0px" y="0px" width="512px" height="512px" viewBox="0 0 509.956 509.956" style="enable-background:new 0 0 509.956 509.956;" xml:space="preserve">
<g>
	<g>
		<path d="M339.892,27.687c-18.589-1.243-39.875-1.865-63.265-1.865c-66.766,0-128.903,5.068-129.238,5.106    c-2.888,0.115-71.221,3.098-117.265,60.253c-43.204,53.674-30.543,102.615-19.164,126.98c4.361,9.361,14.708,15.396,26.374,15.396    c3.653,0,7.153-0.603,10.414-1.807l82.419-30.504c12.67-4.686,22.893-18.934,23.275-32.446l1.004-35.238    c0.229-8.167,6.617-17.566,13.407-19.708c17.48-5.546,48.893-12.345,94.439-10.404c39.99,1.702,63.275,6.895,75.773,10.949    c6.972,2.257,12.278,12.823,12.183,20.396l-0.411,31.843c-0.162,13.244,8.846,28.506,20.502,34.76l74.272,39.895    c4.953,2.659,11.121,4.131,17.384,4.131c9.257,0,17.605-3.156,22.893-8.664c14.535-15.167,30.381-41.128,23.343-78.633    C497.406,100.075,429.961,33.702,339.892,27.687z M474.561,226.826c-4.093,4.255-16.677,5.307-23.15,1.817l-74.282-39.895    c-6.99-3.749-13.033-14.009-12.928-21.946l0.411-31.833c0.162-13.015-8.683-29.873-22.108-34.224    c-19.154-6.206-46.675-10.242-79.589-11.638c-5.604-0.229-10.997-0.344-16.189-0.344c-39.092,0-66.813,6.196-83.185,11.408    c-12.517,3.959-23.017,18.752-23.418,32.971l-1.004,35.238c-0.21,7.679-6.723,16.734-13.923,19.402l-82.41,30.504    c-1.654,0.612-3.481,0.928-5.432,0.928c-6.015,0-11.379-2.859-13.368-7.115c-9.983-21.353-20.99-64.298,17.327-111.938    c41.511-51.522,106.201-54.87,106.938-54.908c0.622-0.058,62.873-5.087,128.396-5.087c23.046,0,44.017,0.622,62.318,1.836    c80.574,5.374,145.312,65.742,155.219,118.747C500.064,192.286,486.763,214.089,474.561,226.826z" fill="#3e3e3e"/>
		<path d="M162.661,234.62c-18.035,0-32.704,14.668-32.704,32.713c0,18.035,14.669,32.703,32.704,32.703    s32.694-14.668,32.694-32.703C195.365,249.288,180.696,234.62,162.661,234.62z M162.661,290.168    c-12.594,0-22.854-10.241-22.854-22.845c0-12.594,10.251-22.854,22.854-22.854s22.845,10.251,22.845,22.854    S175.265,290.168,162.661,290.168z" fill="#3e3e3e"/>
		<path d="M250.818,234.62c-18.035,0-32.713,14.668-32.713,32.713c0,18.035,14.669,32.703,32.713,32.703    c18.035,0,32.694-14.668,32.694-32.703C283.522,249.288,268.853,234.62,250.818,234.62z M250.818,290.168    c-12.594,0-22.854-10.241-22.854-22.845c0-12.594,10.251-22.854,22.854-22.854c12.594,0,22.845,10.251,22.845,22.854    S263.421,290.168,250.818,290.168z" fill="#3e3e3e"/>
		<path d="M338.974,234.62c-18.034,0-32.703,14.668-32.703,32.713c0,18.035,14.669,32.703,32.703,32.703    c18.035,0,32.694-14.668,32.694-32.703C371.668,249.288,357.009,234.62,338.974,234.62z M338.974,290.168    c-12.594,0-22.854-10.241-22.854-22.845c0-12.594,10.25-22.854,22.854-22.854c12.594,0,22.845,10.251,22.845,22.854    S351.568,290.168,338.974,290.168z" fill="#3e3e3e"/>
		<path d="M162.661,326.668c-18.035,0-32.704,14.669-32.704,32.714c0,18.034,14.669,32.703,32.704,32.703    s32.694-14.669,32.694-32.703C195.365,341.337,180.696,326.668,162.661,326.668z M162.661,382.217    c-12.594,0-22.854-10.241-22.854-22.845c0-12.594,10.251-22.854,22.854-22.854s22.845,10.251,22.845,22.854    S175.265,382.217,162.661,382.217z" fill="#3e3e3e"/>
		<path d="M250.818,326.668c-18.035,0-32.713,14.669-32.713,32.714c0,18.034,14.669,32.703,32.713,32.703    c18.035,0,32.694-14.669,32.694-32.703C283.522,341.337,268.853,326.668,250.818,326.668z M250.818,382.217    c-12.594,0-22.854-10.241-22.854-22.845c0-12.594,10.251-22.854,22.854-22.854c12.594,0,22.845,10.251,22.845,22.854    S263.421,382.217,250.818,382.217z" fill="#3e3e3e"/>
		<path d="M338.974,326.668c-18.034,0-32.703,14.669-32.703,32.714c0,18.034,14.669,32.703,32.703,32.703    c18.035,0,32.694-14.669,32.694-32.703C371.668,341.337,357.009,326.668,338.974,326.668z M338.974,382.217    c-12.594,0-22.854-10.241-22.854-22.845c0-12.594,10.25-22.854,22.854-22.854c12.594,0,22.845,10.251,22.845,22.854    S351.568,382.217,338.974,382.217z" fill="#3e3e3e"/>
		<path d="M162.661,418.717c-18.035,0-32.704,14.669-32.704,32.713c0,18.035,14.669,32.704,32.704,32.704    s32.694-14.669,32.694-32.704C195.365,433.386,180.696,418.717,162.661,418.717z M162.661,474.266    c-12.594,0-22.854-10.242-22.854-22.845c0-12.594,10.251-22.854,22.854-22.854s22.845,10.251,22.845,22.854    C185.506,464.023,175.265,474.266,162.661,474.266z" fill="#3e3e3e"/>
		<path d="M250.818,418.717c-18.035,0-32.713,14.669-32.713,32.713c0,18.035,14.669,32.704,32.713,32.704    c18.035,0,32.694-14.669,32.694-32.704C283.522,433.386,268.853,418.717,250.818,418.717z M250.818,474.266    c-12.594,0-22.854-10.242-22.854-22.845c0-12.594,10.251-22.854,22.854-22.854c12.594,0,22.845,10.251,22.845,22.854    C273.663,464.023,263.421,474.266,250.818,474.266z" fill="#3e3e3e"/>
		<path d="M338.974,418.717c-18.034,0-32.703,14.669-32.703,32.713c0,18.035,14.669,32.704,32.703,32.704    c18.035,0,32.694-14.669,32.694-32.704C371.668,433.386,357.009,418.717,338.974,418.717z M338.974,474.266    c-12.594,0-22.854-10.242-22.854-22.845c0-12.594,10.25-22.854,22.854-22.854c12.594,0,22.845,10.251,22.845,22.854    C361.819,464.023,351.568,474.266,338.974,474.266z" fill="#3e3e3e"/>
	</g>
</g>
<g>
</g>
<g>
</g>
<g>
</g>
<g>
</g>
<g>
</g>
<g>
</g>
<g>
</g>
<g>
</g>
<g>
</g>
<g>
</g>
<g>
</g>
<g>
</g>
<g>
</g>
<g>
</g>
<g>
</g>
</svg>
